<?xml version="1.0" standalone="no"?>
<!DOCTYPE svg PUBLIC "-//W3C//DTD SVG 20010904//EN"
 "http://www.w3.org/TR/2001/REC-SVG-20010904/DTD/svg10.dtd">
<svg version="1.0" xmlns="http://www.w3.org/2000/svg"
 width="512.000000pt" height="512.000000pt" viewBox="0 0 512.000000 512.000000"
 preserveAspectRatio="xMidYMid meet">
<metadata>
Created by potrace 1.14, written by Peter Selinger 2001-2017
</metadata>
<g transform="translate(0.000000,512.000000) scale(0.100000,-0.100000)"
fill="#000000" stroke="none">
<path d="M2325 4950 c-297 -31 -650 -139 -903 -277 -699 -380 -1163 -1068
-1263 -1868 -16 -129 -16 -421 0 -550 103 -827 599 -1529 1336 -1891 241 -118
511 -198 790 -235 136 -18 437 -15 589 5 909 122 1674 748 1970 1613 89 262
128 493 129 773 1 287 -34 503 -125 777 -120 364 -314 679 -588 954 -369 370
-835 606 -1350 684 -126 19 -460 27 -585 15z m1252 -1741 c38 -14 83 -57 99
-96 19 -44 17 -90 -5 -138 -23 -50 -1222 -1249 -1264 -1264 -39 -15 -102 -14
-140 3 -18 8 -203 186 -424 407 -331 334 -393 400 -403 436 -38 130 83 252
213 213 35 -10 94 -63 365 -333 l322 -322 538 537 c295 295 551 544 567 552
35 18 92 21 132 5z"/>
</g>
</svg>
