<?xml version="1.0" standalone="no"?>
<!DOCTYPE svg PUBLIC "-//W3C//DTD SVG 20010904//EN"
 "http://www.w3.org/TR/2001/REC-SVG-20010904/DTD/svg10.dtd">
<svg version="1.0" xmlns="http://www.w3.org/2000/svg"
 width="700.000000pt" height="700.000000pt" viewBox="0 0 700.000000 700.000000"
 preserveAspectRatio="xMidYMid meet">
<metadata>
Created by potrace 1.14, written by Peter Selinger 2001-2017
</metadata>
<g transform="translate(0.000000,700.000000) scale(0.100000,-0.100000)"
fill="#000000" stroke="none">
<path d="M3295 6904 c-22 -2 -89 -9 -150 -14 -822 -80 -1629 -491 -2180 -1109
-698 -785 -998 -1813 -829 -2841 57 -347 149 -630 309 -955 331 -669 867
-1206 1540 -1540 512 -254 1026 -367 1605 -352 288 8 486 34 745 99 814 203
1539 717 2008 1424 293 442 471 924 544 1469 21 165 24 629 5 785 -46 365
-125 664 -259 975 -243 568 -642 1064 -1148 1427 -475 341 -1015 547 -1620
618 -93 11 -499 21 -570 14z m1673 -2490 c125 -62 176 -211 113 -331 -11 -22
-383 -401 -888 -905 -673 -672 -878 -872 -913 -887 -58 -26 -132 -26 -190 0
-34 15 -176 151 -598 572 -315 314 -562 568 -573 590 -83 160 39 357 221 357
103 0 115 -10 600 -495 l445 -445 765 765 c590 589 775 769 810 784 65 30 143
28 208 -5z"/>
</g>
</svg>
