<svg version="1.1" id="Camada_1" xmlns="http://www.w3.org/2000/svg" x="0" y="0" viewBox="0 0 150 150" xml:space="preserve"><style>.st0{fill:#00a1e0}</style><path class="st0" d="M147.8 118.1c-.2-.7-.5-1.3-1-1.7l-29.5-29.5 6.9-3.7c5.1-2.7 7.1-9 4.5-14l-4.1-8.4c-.4-.8-.4-1.9 0-2.8l4.1-8.4c2.5-5.3.5-11.4-4.5-14l-8.3-4.4c-.8-.5-1.5-1.3-1.7-2.3l-1.7-9.1c-1-5.6-6.3-9.5-11.9-8.7l-9.2 1.3c-1.2.2-2.2-.4-2.7-.9L82 5c-4.1-4-10.6-4-14.8 0l-6.7 6.5c-.6.5-1.5 1.1-2.7.9l-9.2-1.3c-5.7-.8-10.9 3-12 8.7L35.1 29c-.2 1-.8 1.8-1.7 2.3l-8.2 4.4c-5.1 2.7-7.1 9-4.5 14l4.1 8.4c.4.8.4 1.9 0 2.8l-4.1 8.4c-2.5 5.3-.5 11.4 4.5 14l7 3.7-29.1 29.4c-.7.7-1.1 1.7-1.1 2.7 0 1 .4 1.9 1.1 2.4.5.5 1.1.8 1.8 1l18.3 4.3 4.2 18.3c.5 2 2.5 3.2 4.5 2.7.7-.2 1.3-.5 1.7-1l33.6-33.5.4.4c4.1 4 10.6 4 14.8 0l.4-.4 33.6 33.6c.7.7 1.6 1.1 2.6 1.1h.1c1 0 1.9-.4 2.4-1.1.5-.5.8-1.1 1-1.8l4.2-18.4 18.3-4.2c2.1-.4 3.3-2.3 2.8-4.4zM36.2 93.8l.9 5.2c1 5.6 6.3 9.5 11.9 8.7l9.2-1.3c1.2-.2 2.2.4 2.7.9l1 .9-28.8 28.7-3.2-14.1c-.3-1.4-1.3-2.4-2.8-2.8L13 116.8l23.2-23zm21 5.3l-9.2 1.3c-1.7.3-3.3-.9-3.6-2.6l-1.7-9.1c-.2-1.1-.6-2.3-1.2-3.4l-.1-.3c0-.1-.1-.2-.2-.3-1-1.5-2.3-2.7-3.9-3.6L29 76.6c-1.5-.8-2.1-2.6-1.4-4.2l4.1-8.4c1.5-2.9 1.5-6.4 0-9.4l-4.1-8.4c-.7-1.6-.1-3.4 1.4-4.2l8.2-4.4c3-1.5 5-4.3 5.5-7.6l1.7-9.2c.3-1.7 1.8-2.8 3.6-2.6l9.2 1.3c3.4.5 6.6-.6 8.8-2.9l6.7-6.5c1.3-1.2 3.2-1.2 4.5 0l6.7 6.5c2.4 2.3 5.7 3.4 8.8 2.9l9.3-1.3c1.7-.3 3.3.9 3.6 2.6l1.7 9.1c.5 3.2 2.5 5.9 5.4 7.6l8.3 4.4c1.5.8 2.1 2.6 1.4 4.2l-4.1 8.4c-1.5 2.9-1.5 6.4 0 9.4l4.1 8.4c.7 1.6.1 3.4-1.4 4.2l-8.2 4.4c-3 1.5-5 4.3-5.5 7.6l-1.7 9.2c-.3 1.7-1.8 2.8-3.6 2.6L92.8 99c-3.4-.5-6.6.6-8.8 2.9l-6.7 6.5c-1.3 1.2-3.3 1.1-4.5 0l-6.7-6.5c-1.9-1.9-4.6-3-7.4-3-.4 0-.9 0-1.5.2zm31.9 8.1c.6-.5 1.5-1.1 2.7-.9l9.2 1.3c5.7.8 10.9-3 12-8.7l.9-5.2 23.1 23.1-14.1 3.3c-1.4.3-2.4 1.3-2.8 2.8l-3.2 14.1-28.8-28.8 1-1z"/><path class="st0" d="M81.8 93.7c9.2-1.8 17.1-7.1 22.3-14.9C108 73 110 66.3 110 59.3c0-8.3-3-16.4-8.4-22.8-1.2-1.6-3.5-1.9-5.1-.8-1.6 1.1-2 3.5-.8 5.1l.1.1c.1.2.2.3.4.4 9.7 11.5 8.3 28.8-3.1 38.7-5.5 4.8-12.6 7.2-20 6.6-7.4-.5-14-3.9-18.8-9.5-9.9-11.5-8.6-29 3-38.8 9.4-8 23.1-8.8 33.2-2.1 1.7 1.2 4 .8 5.1-.8.5-.8.8-1.8.6-2.7-.1-.9-.6-1.8-1.4-2.3l-.2-.2c-16-10.7-37.8-6.4-48.5 9.6-5.2 7.8-7.1 17.1-5.3 26.2 1.8 9.2 7.1 17.1 14.8 22.3 5.8 3.9 12.5 5.9 19.3 5.9 2.2.2 4.6 0 6.9-.5z"/><path class="st0" d="M87.5 46.3h-.2L70.6 64l-7.3-8.3c-.6-.8-1.5-1.3-2.4-1.4-1-.1-1.9.1-2.7.8-.8.6-1.3 1.5-1.4 2.4-.1 1 .1 2 .8 2.7l10.1 11.6c.7.8 1.7 1.3 2.8 1.3.9 0 1.7-.3 2.6-1l19.2-20.3c.7-.7 1.1-1.6 1.1-2.6s-.4-1.9-1.1-2.6c-1.4-1.1-3.4-1.3-4.8-.3z"/></svg>