<svg xmlns="http://www.w3.org/2000/svg" viewBox="0 0 150 150"><path d="M145.5 33.1c-1-.8-2.2-1-3.4-.7l-15.4 3.9C121 36 103 29 92.7 24.6l-.2-.1c-13.7-4.9-25.5-3.8-35.4 3.2-13.2-4.5-30 5-35.2 8.2l-14-3.4c-2.1-.6-4.3.7-4.9 2.8-.1.3-.1.7-.1 1v56c0 2.2 1.8 4 4 4h8.5L51.8 125c4.8 4.6 12.4 4.5 17-.3 1-1 1.8-2.2 2.4-3.5 1.8 1 3.9 1.6 6 1.6 4.8 0 9.1-2.8 11-7.3 1.8 1 3.9 1.6 6 1.6 4.8 0 9.1-2.9 11-7.3 5.8 3.3 13.1 1.3 16.3-4.5 1.1-1.9 1.6-4.1 1.6-6.3l8.6-2.7h11.4c2.2 0 4-1.8 4-4v-56c0-1.2-.6-2.4-1.6-3.2zM10.9 41.5l7.2 1.8L15.2 70l-2 18.4h-2.3V41.5zm103 60.8c-1.6 1.5-4.1 1.5-5.7 0l-5.7-5.7L80 73.9c-1.6-1.5-4.2-1.3-5.7.3-1.4 1.5-1.4 3.8 0 5.3L97 102.3c1.5 1.6 1.5 4.1-.1 5.7-1.6 1.5-4 1.5-5.6 0l-5.7-5.7-17-17c-1.6-1.6-4.1-1.6-5.7 0-1.6 1.6-1.6 4.1 0 5.7L80 108c1.6 1.5 1.6 4.1.1 5.7-1.5 1.6-4.1 1.6-5.7.1l-.1-.1-16.9-17c-1.6-1.6-4.1-1.6-5.6 0-.8.7-1.2 1.8-1.2 2.8 0 1.1.4 2.1 1.2 2.8l11.3 11.3c1.6 1.6 1.6 4.1 0 5.7-1.6 1.5-4.1 1.5-5.7 0-.1-.1-.2-.2-.4-.3L21 90.7l4-37.1 1.2-10.8c5.1-3.2 15-8.2 23.3-8-2.5 2.8-4.6 5.9-6.5 9.1-3.7 6.1-1.9 14.1 4 18.2 5.7 3.9 16 7.5 28.8-3.6l38.1 38.1c1.6 1.6 1.6 4.1 0 5.7zm6.3-10.7c-.2-.2-.4-.5-.6-.7L81.5 52.8c1.6-1.8 3.2-3.9 4.8-6.2 1.4-1.7 1.3-4.2-.4-5.6-1.7-1.4-4.2-1.3-5.6.4-.2.2-.3.4-.4.6-7.1 10.1-17.7 20.6-28.2 13.5-2.5-1.8-3.2-5.1-1.6-7.7 2.6-4.6 6-8.8 10-12.2.1-.1.3-.2.4-.3 8-6.4 17.6-7.4 29.3-3.2 3 1.3 23.2 9.8 33.8 11.8l3.5 45.6-6.9 2.1zm18.9-3.2h-4.3l-3.5-45 7.8-1.9v46.9z" fill="#00a1e0"/></svg>