<?xml version="1.0" encoding="utf-8"?>
<!-- Generator: Adobe Illustrator 25.2.3, SVG Export Plug-In . SVG Version: 6.00 Build 0)  -->
<svg version="1.1" id="Camada_1" xmlns="http://www.w3.org/2000/svg" xmlns:xlink="http://www.w3.org/1999/xlink" x="0px" y="0px"
	 viewBox="0 0 150 150" style="enable-background:new 0 0 150 150;" xml:space="preserve">
<style type="text/css">
	.st0{fill:#FFFFFF;}
</style>
<path class="st0" d="M135.6,39.2H14.4c-6.7,0-12.2-5.5-12.2-12.2v0c0-6.7,5.5-12.2,12.2-12.2h121.1c6.7,0,12.2,5.5,12.2,12.2v0
	C147.8,33.8,142.3,39.2,135.6,39.2z"/>
<path class="st0" d="M135.6,87.2h-66c-6.7,0-12.2-5.5-12.2-12.2v0c0-6.7,5.5-12.2,12.2-12.2h66c6.7,0,12.2,5.5,12.2,12.2v0
	C147.8,81.7,142.3,87.2,135.6,87.2z"/>
<path class="st0" d="M135.6,135.1H36.7c-6.7,0-12.2-5.5-12.2-12.2v0c0-6.7,5.5-12.2,12.2-12.2h98.8c6.7,0,12.2,5.5,12.2,12.2v0
	C147.8,129.7,142.3,135.1,135.6,135.1z"/>
</svg>
