<?xml version="1.0" encoding="utf-8"?>
<!-- Generator: Adobe Illustrator 25.2.3, SVG Export Plug-In . SVG Version: 6.00 Build 0)  -->
<svg version="1.1" id="Camada_1" xmlns="http://www.w3.org/2000/svg" xmlns:xlink="http://www.w3.org/1999/xlink" x="0px" y="0px"
	 viewBox="0 0 150 150" style="enable-background:new 0 0 150 150;" xml:space="preserve">
<style type="text/css">
	.st0{fill:#FFFFFF;}
</style>
<g id="Grupo_45" transform="translate(249 1.049)">
	<path id="Caminho_60" class="st0" d="M-173.5,14.8c19.4,0,21.7,0.1,29.3,0.4c4.6,0,9.1,0.9,13.5,2.6c6.3,2.4,11.3,7.4,13.8,13.8
		c1.6,4.3,2.4,8.8,2.6,13.5c0.3,7.7,0.4,10,0.4,29.3s-0.1,21.7-0.4,29.3c0,4.6-0.9,9.1-2.6,13.5c-2.4,6.3-7.4,11.3-13.8,13.8
		c-4.3,1.6-8.8,2.4-13.5,2.6c-7.7,0.3-10,0.4-29.3,0.4s-21.7-0.1-29.3-0.4c-4.6,0-9.1-0.9-13.5-2.6c-6.3-2.4-11.3-7.4-13.8-13.8
		c-1.6-4.3-2.4-8.8-2.6-13.5c-0.3-7.7-0.4-10-0.4-29.3s0.1-21.7,0.4-29.3c0-4.6,0.9-9.1,2.6-13.5c2.4-6.3,7.4-11.3,13.8-13.8
		c4.3-1.6,8.8-2.4,13.5-2.6C-195.2,14.9-192.9,14.8-173.5,14.8 M-173.5,1.7c-19.7,0-22.2,0.1-29.9,0.4c-6,0.1-12,1.3-17.7,3.4
		c-9.7,3.7-17.4,11.4-21.2,21.2c-2.1,5.7-3.3,11.5-3.4,17.7c-0.3,7.7-0.4,10.3-0.4,29.9s0.1,22.2,0.4,29.9c0.1,6,1.3,12,3.4,17.7
		c3.7,9.7,11.4,17.4,21.2,21.2c5.7,2.1,11.5,3.3,17.7,3.4c7.7,0.3,10.3,0.4,29.9,0.4s22.2-0.1,29.9-0.4c6-0.1,12-1.3,17.7-3.4
		c9.7-3.7,17.4-11.5,21.2-21.2c2.1-5.7,3.3-11.5,3.4-17.7c0.3-7.7,0.4-10.3,0.4-29.9s-0.1-22.2-0.4-29.9c-0.1-6-1.3-12-3.4-17.7
		C-108.4,17-116.3,9.3-126,5.5c-5.7-2.1-11.5-3.3-17.7-3.4C-151.3,1.8-153.9,1.7-173.5,1.7z"/>
	<path id="Caminho_61" class="st0" d="M-173.5,37c-20.5,0-37.2,16.7-37.2,37.2s16.7,37.2,37.2,37.2s37.2-16.7,37.2-37.2
		S-153,37-173.5,37z M-173.5,98.4c-13.4,0-24.2-10.8-24.2-24.2s10.8-24.2,24.2-24.2s24.2,10.8,24.2,24.2S-160.1,98.4-173.5,98.4z"/>
	<ellipse id="Elipse_1" class="st0" cx="-134.8" cy="35.6" rx="8.7" ry="8.7"/>
</g>
</svg>
