<svg version="1.1" id="Camada_1" xmlns="http://www.w3.org/2000/svg" x="0" y="0" viewBox="0 0 150 150" xml:space="preserve"><style>.st0{fill:#00a1e0}</style><path class="st0" d="M137.1 85.5c-1.7-5-10.3-30.3-17-35.6-4.4-3.5-17.6-10.9-30.2-13.4.6-3.9 2-13.2 2-15.9 0-8.1-3.5-13.5-9.3-14.5-14.4-5.3-21.5-1-27 4.4-2.9 2.9-3.8 2.7-4.6 2.5-.7-.2-1.6-.4-2.8.4-.6.4-1.4 1.3-1.5 3.1-.3 4.3 3.4 11.4 6.7 14.6-.1 2.1 0 5.6 1.7 9.4-8.7 3-16 7-19.6 10.6-6.9 7-19.8 26.5-19.9 26.7-1.4 2.2.1 3.9 1.3 5.2-3.1 5.4-4.2 12.5-4.2 17 0 7.8 9.4 14.9 18.6 21.8 5 3.8 9.7 7.3 12.2 10.6 1 1.3 2.1 2.6 3.3 3.8v6.9c0 1.8 1.5 3.3 3.3 3.3 1.8 0 3.3-1.5 3.3-3.3v-3.6c.4.1.8.1 1.2.1 3 0 10.1-1.2 10.1-12.4 0-4.1-7.9-12.8-16.3-19.9.5.3 1.1.5 1.7.5 1.8 0 3.3-1.5 3.3-3.3 0-5.3-2.3-13.5-3.6-17.9 0-.1-.1-.2-.1-.2-1.9-6.1-4.2-12.3-5.7-15.2-.4-.8-1.1-1.4-1.9-1.6-.8-.3-1.7-.2-2.5.2s-1.4 1.1-1.6 1.9c-.3.8-.2 1.7.2 2.5 1.2 2.3 3 6.9 4.6 12l-6.4 5.1c-6.2-4.2-11.4-9.5-13.8-12.1 3.4-5 12.6-18.4 17.8-23.6C46.5 49.4 66.4 42 82 42c12.7 0 29.6 9.2 34.3 12.9 3.3 2.6 9.5 17 14 30.1-2 1.1-6.1 2.8-13.6 4.4.4-7 .6-13.3.4-19 0-.9-.4-1.7-1.1-2.3-.6-.6-1.5-.9-2.3-.9a3.4 3.4 0 0 0-3.2 3.4c.4 12.2-.7 23.9-1.5 32.4-.8 8.8-.8 9.3-.7 15.6 0 4.1.1 10.9 0 24.5 0 1.8 1.5 3.3 3.3 3.3s3.3-1.5 3.3-3.3v-17.4c17-13.5 18.2-15.6 18.2-30.2 0-1.8-1.2-2.9-2.5-3.2 3.1-1.2 5.6-2.7 6.6-4.3.1-.8.2-1.7-.1-2.5zm-10.9 10.1c0 11.1 0 12.4-11.6 21.8v-3.6c0-2.1.3-5.5.7-9.7.2-2.3.4-4.8.7-7.6 2.4-.5 6.7-1.4 10.8-2.7-.4.4-.6 1-.6 1.8zm-42.6-61c-.1.4-.1.7-.2 1.1-2-.1-4 0-6 .1 2.2-.3 4.3-.7 6.2-1.2zm-23.7-3c1.3-.9 1.7-.8 1.8-.8.2.1.5.8.7 1.3.5 1.2 1.1 2.8 2.9 3.2 3.1.5 7 .8 10.8.5-6 .6-11.6 1.9-14.7 2.7-1.5-2.9-1.6-5.5-1.5-6.9zm24.6-4.5c-4.8 2.9-13 2.3-16.1 2-.9-1.8-2.9-4.8-7-4.8-1.3 0-2.7.5-4.3 1.3-1.3-1.6-2.6-3.9-3.3-6 2.6-.6 4.5-2.4 6.3-4.1 3.9-3.8 8-7.7 20.5-2.9.1 0 .3.1.6.1 1.2.2 4.1.8 4.1 8 0 4.8-.6 6.1-.8 6.4zM40.4 96.6c1-.9 2.3-2.1 4.2-3.4 1.4 5 2.1 9.1 2.1 11.6 0 .8.3 1.6.8 2.1-3.8-3.2-7.7-6-10.9-7.9 1.3-.2 2.4-1.1 3.8-2.4zm-10.3-.5c-.8 1.5-1.9 3.5-1.3 5.2.3.8.9 1.4 1.8 1.8 10.4 4.6 26.8 21.4 27.5 24.3 0 5.7-2.2 5.7-3.5 5.7-2.3 0-3.9-2.1-5.9-4.7-1.1-1.4-2.4-3.1-3.9-4.5-1.1-1-3.2-2.5-5.9-4.5-6.9-5-19.6-14.3-19.6-19.3 0-3.1.7-8 2.4-12 2.9 2.8 5.8 5.2 8.7 7.4l-.3.6z"/><path class="st0" d="M113.5 39.9h.2c1.1 0 2-.5 2.7-1.5l.1-.1c.7-1.3 1.6-2.5 2.4-3.7 1.5-2.1 2.9-3.9 2.6-5.6-.1-.8-.6-1.5-1.4-2-.8-.5-1.6-.7-2.4-.5-1.7.4-2.8 2.3-4.1 4.5-.8 1.3-1.5 2.6-2.6 3.8-.7 1-.8 2.2-.3 3.2.4 1.1 1.5 1.8 2.8 1.9zM33.7 38.4c.5.7 1.2 1.2 2.1 1.4.2 0 .4.1.7.1.6 0 1.3-.2 1.8-.6.7-.5 1.2-1.2 1.4-2.1.2-.9 0-1.7-.5-2.5L34.6 28c-.5-.7-1.2-1.2-2.1-1.4-.9-.2-1.7 0-2.5.5-.7.5-1.2 1.2-1.4 2.1-.2.9 0 1.7.5 2.5l4.6 6.7zM125 46.7c.8 0 1.6-.3 2.3-1l.1-.1c1.3-1.5 2.7-2.8 3.9-3.9 2.1-1.9 3.8-3.5 3.8-5.2 0-.8-.3-1.6-1-2.3-.7-.7-1.5-1-2.3-1-1.8 0-3.3 1.7-5.2 3.8-1.1 1.2-2.4 2.7-4 4-1.5 1.5-1.1 3.5 0 4.6.6.7 1.5 1.1 2.4 1.1zM22.7 48c.6.6 1.5 1 2.3 1 .3 0 .5 0 .8-.1 1.2-.3 2.1-1.3 2.5-2.4.3-1.1 0-2.2-.9-3.1l-6.8-6.8c-1.2-1.2-3.4-1.2-4.7 0a3.32 3.32 0 0 0 0 4.7l6.8 6.7zM68.1 97.8l-6.8 6.8c-.6.6-1 1.4-1 2.3 0 .9.3 1.7 1 2.3.6.6 1.4 1 2.3 1 .9 0 1.7-.3 2.3-1l6.8-6.8c1.3-1.3 1.3-3.4 0-4.7-1.2-1.2-3.3-1.2-4.6.1zM69.6 117.3c-.3.8-.2 1.7.2 2.5.6 1.1 1.7 1.8 2.9 1.8.5 0 1-.1 1.5-.3l9.1-4.5c1.6-.8 2.3-2.8 1.5-4.4-.8-1.6-2.8-2.3-4.4-1.5l-9.1 4.5c-.8.3-1.4 1-1.7 1.9zM82.6 131l-9.1-2.3c-.9-.2-1.7-.1-2.5.4s-1.3 1.2-1.5 2c-.2.9-.1 1.7.4 2.5s1.2 1.3 2 1.5l9.1 2.3c.3.1.5.1.8.1 1.5 0 2.8-1 3.2-2.5.4-1.8-.6-3.6-2.4-4z"/></svg>