<?xml version="1.0" encoding="utf-8"?>
<!-- Generator: Adobe Illustrator 25.2.3, SVG Export Plug-In . SVG Version: 6.00 Build 0)  -->
<svg version="1.1" id="Camada_1" xmlns="http://www.w3.org/2000/svg" xmlns:xlink="http://www.w3.org/1999/xlink" x="0px" y="0px"
	 viewBox="0 0 150 150" style="enable-background:new 0 0 150 150;" xml:space="preserve">
<style type="text/css">
	.st0{fill:#FFFFFF;}
</style>
<path class="st0" d="M144.9,113.4c-4.6-3.8-31.3-20.8-35.8-20c-2.1,0.4-3.7,2.2-8,7.3c-2,2.5-4.2,4.9-6.5,7c-4.3-1-8.5-2.6-12.4-4.6
	c-15.4-7.5-27.9-20-35.4-35.4c-2-3.9-3.6-8.1-4.6-12.4c2.2-2.3,4.5-4.5,7-6.5c5.1-4.3,6.9-5.9,7.3-8c0.8-4.5-16.2-31.2-20-35.8
	c-1.6-1.9-3.1-3.2-4.9-3.2C26.3,1.9,1.9,32,1.9,35.9c0,0.3,0.5,31.7,40.2,72c40.3,39.6,71.7,40.2,72,40.2c3.9,0,34.1-24.4,34.1-29.8
	C148.1,116.5,146.8,115,144.9,113.4L144.9,113.4z"/>
<path class="st0" d="M111.6,69.8H122C122,46.7,103.3,28,80.2,28v10.4C97.5,38.5,111.5,52.5,111.6,69.8z"/>
<path class="st0" d="M137.7,69.8h10.4c0-37.5-30.4-67.9-67.9-67.9v10.4C111.9,12.4,137.6,38.1,137.7,69.8z"/>
</svg>
