<svg version="1.1" id="Camada_1" xmlns="http://www.w3.org/2000/svg" x="0" y="0" viewBox="0 0 150 150" xml:space="preserve"><style>.st0{fill:#00a1e0}</style><path class="st0" d="M90.6 135.8c-4.6 1-9.4 1.5-14.1 1.5-35.2 0-63.9-28-63.9-62.3 0-29.8 21.6-54.8 50.3-60.9-1.7 1.7-3.3 3.6-4.8 5.5-1.4 1.8-1 4.4.8 5.8 1.8 1.4 4.4 1.1 5.8-.7 3.8-5 8.6-9.3 14-12.6 1.2-.8 2-2.1 2-3.5 0-2.3-1.9-4.1-4.1-4.1h-.1c-19.3 0-37.3 7.3-51 20.6C11.9 38.4 4.4 56.1 4.4 75s7.5 36.6 21.2 50c13.6 13.3 31.7 20.6 51 20.6 5.3 0 10.7-.6 15.9-1.7 2.2-.5 3.6-2.7 3.1-4.9-.6-2.2-2.8-3.7-5-3.2z"/><path class="st0" d="M138.8 91.7c-9.3 7.8-21.1 12.1-33.2 12.1-28 0-50.8-22.2-50.8-49.6 0-5.3.9-10.6 2.6-15.6.7-2.2-.4-4.5-2.6-5.2-2.2-.7-4.5.4-5.2 2.6-2 5.9-3 12-3 18.2 0 15.5 6.2 30 17.3 40.9 11.2 10.9 26 16.9 41.8 16.9 9.2 0 18.2-2.1 26.5-6.1-6.7 11.3-16.7 20.3-28.7 25.7-1.5.7-2.4 2.2-2.4 3.8 0 2.3 1.9 4.1 4.1 4.1.6 0 1.2-.1 1.7-.4 18.5-8.4 32.6-24 38.6-43 .4-1.4.1-2.9-.8-3.9-1.6-1.8-4.2-2-5.9-.5z"/><path class="st0" d="M70.8 40.6c0 2.3 1.9 4.1 4.1 4.1h11.7l-14.4 12-.1.1c0 .1 0 .2-.1.2l-.1.1-.2.2s-.1.1-.1.2-.1.1-.1.2-.1.1-.1.2-.1.1-.1.2-.1.1-.1.2-.1.2-.1.2c0 .1 0 .1-.1.2 0 .1-.1.2-.1.3V60.1c0 2.3 1.9 4.1 4.1 4.1h23.2c2.3 0 4.1-1.9 4.1-4.1 0-2.3-1.9-4.1-4.1-4.1H86.4l14.2-11.8c1-.8 1.7-2 1.7-3.3 0-2.3-1.9-4.1-4.1-4.1H75c-2.3-.3-4.2 1.5-4.2 3.8zM117.2 73.9s-.1.1 0 0l-.3.3s0 .1-.1.1c-.1.1-.1.2-.2.3 0 0 0 .1-.1.1-.1.1-.1.2-.2.3v.1c-.1.1-.1.2-.1.4 0 .1-.1.3-.1.4-.1.3-.1.6-.1.9 0 2.3 1.9 4.1 4.1 4.1h17.6c2.3 0 4.1-1.9 4.1-4.1 0-2.3-1.9-4.1-4.1-4.1h-6.2l8.7-7.2.3-.3.1-.1c1.7-1.5 1.8-4.2.2-5.8-1.1-1.2-2.6-1.6-4.1-1.2H120c-2.3 0-4.1 1.9-4.1 4.1 0 2.3 1.9 4.1 4.1 4.1h6.2l-8.8 7.3c0 .1-.1.2-.2.3zM141.5 25.6h-14l16.7-13.9c.4-.3.7-.8 1-1.2.1-.1.1-.2.2-.3 0-.1.1-.2.1-.3v-.1c0-.1.1-.2.1-.3v-.1c0-.1 0-.3.1-.4.1-1-.2-2.1-.9-3v-.1l-.2-.2-.1-.1-.2-.2-.1-.1-.2-.2-.1-.1c-.1 0-.1-.1-.2-.1l-.1-.1c-.1 0-.1-.1-.2-.1s-.1-.1-.2-.1-.1 0-.2-.1c-.1 0-.1-.1-.2-.1h-.2c-.1 0-.2 0-.2-.1h-26.2c-2.3 0-4.1 1.9-4.1 4.1 0 2.3 1.9 4.1 4.1 4.1h14l-16.7 13.9-.1.1-.2.2s-.1.1-.1.2-.1.1-.1.2-.1.1-.1.2-.1.1-.1.2-.1.1-.1.2-.1.1-.1.2-.1.1-.1.2-.1.2-.1.2c0 .1 0 .1-.1.2 0 .1 0 .2-.1.2v1c0 2.2 1.8 4.1 4 4.1h25.5c2.3 0 4.1-1.9 4.1-4.1-.2-2.2-2-4.1-4.3-4.1z"/></svg>