<svg version="1.1" id="Camada_1" xmlns="http://www.w3.org/2000/svg" x="0" y="0" viewBox="0 0 406.8 121.7" xml:space="preserve"><style>.st0{fill:#fff}.st1{fill:#e9e9eb}.st2{fill:#00a1e0}.st3{fill:#6bc7f3}</style><g id="Grupo_1" transform="translate(-95.658 -184.769)"><path id="Caminho_1" class="st0" d="M483.4 209.5c-4.9-3.5-10.8-5.3-16.9-5.1-4.7-.1-9.4 1-13.7 3.1-2.2-1.3-4.8-2-7.3-1.9h-2.6c-5.2-.2-10.1 2.8-12.4 7.5-14-11.5-34.1-11.5-48 0-.2-.5-.5-.9-.8-1.4 1.6-2.4 2.4-5.2 2.3-8v-3.1c.3-7.4-5.5-13.5-12.9-13.8H367c-6.6-.2-12.4 4.4-13.5 10.9-2.6-3.4-6.7-5.3-11-5.2h-2.7c-7.4-.3-13.5 5.5-13.8 12.9v1.3c-1.8-.7-3.7-1.1-5.7-1.1h-2.9c-7.3-.2-13.5 5.5-13.7 12.9v.5h-3.1c0-7.3-5.9-13.3-13.2-13.3H284c-1.7 0-3.4.3-5 .9v-5.9c.3-7.4-5.5-13.5-12.9-13.8h-3.8c-7.4-.3-13.5 5.5-13.8 12.9v12.3c-12.4-9.2-29.3-10-42.5-1.9-2.6-2.9-6.4-4.6-10.3-4.4h-3.2c-6.1-.2-11.6 3.7-13.5 9.6l-1.9 5.3-1 .2-1.9-5.2c-1.9-5.9-7.4-9.9-13.6-9.8h-3.2c-3.4-.1-6.8 1.2-9.3 3.5-5.1-3.2-11-4.8-17-4.6-9.3-.2-18.3 3.5-24.8 10.2-13.1 14.5-12.8 36.6.5 50.9 6.8 6.8 16.1 10.5 25.7 10.2 7 0 13.9-1.9 19.9-5.5 7.9 9.5 19.7 14.9 32 14.6.4 0 .8 0 1.3-.1 13.9 14 30.7 20.9 52.2 21.7 18.1.6 37.5-3.1 58-7.1 22.2-4.3 42.7-8.4 66-7.6 17.8.6 36.7 5.9 52.8 9 8.4 1.6 14.9-3.6 16.3-8.3 1.2-2.5.9-5.5-.8-7.7h.7c8.3.1 16.4-2.3 23.4-6.8 4.4 2.2 9.2 3.4 14.2 3.4 18.9 0 34.2-17 34.2-38 0-14.1-7.3-27.1-19.3-34.2z"/><path id="Caminho_2" class="st1" d="M239.6 300.4c-22.3-1-39.1-8.9-52.7-25-.6-.8-.7-1.9-.1-2.8.3-.4.8-.7 1.4-.7.4 0 .7.2 1 .4 9.3 8.2 20.4 12.3 34.9 12.9 14.2.6 30.4-2.2 47.7-5.2 21.2-3.7 45.3-7.8 71.3-6.7 25.6.9 50.7 7.6 73.4 19.5.9.4-.6 2.2-.8 2.1-15.1-7-29.7-8.8-47.6-9.5-24.2-1-47.9 3.6-70.7 8-20.5 4-39.9 7.8-57.8 7z"/><path id="Caminho_3" class="st1" d="M133.3 215.4c-6.9-.2-13.6 2.5-18.5 7.4-4.9 5.2-7.5 12.2-7.2 19.4-.4 14.4 10.9 26.4 25.3 26.8h1.8c6.1 0 12.1-1.8 17.1-5.3 2.2-1.2 3.1-4 1.9-6.2-.1-.2-.2-.4-.3-.5l-.8-1.4c-.7-1.6-2.3-2.6-4-2.6-1.1 0-2.1.4-3.1.9-2.9 2.2-6.5 3.4-10.2 3.4-3.7.1-7.3-1.2-10.1-3.7-2.3-2.3-3.9-5.3-4.3-8.6h29.7c1.4 0 2.7-.5 3.7-1.5.9-1 1.4-2.2 1.4-3.6.3-6.4-1.8-12.7-5.9-17.6-4.2-4.7-10.2-7.2-16.5-6.9zm-11.7 19.8c.6-2.3 1.9-4.3 3.6-5.9 2.2-2 5-3 7.9-2.9 2.6-.1 5 .9 6.8 2.7 1.5 1.7 2.5 3.8 2.7 6.1h-21z"/><path id="Caminho_4" class="st1" d="M201.9 218.3c-.9-1.2-2.4-1.9-4-1.8h-3.2c-2.4-.1-4.6 1.5-5.3 3.8l-10.7 29.6-10.7-29.5c-.7-2.4-2.8-3.9-5.3-3.8h-3.2c-1.5-.1-3 .6-3.9 1.8-.8 1.3-.9 2.9-.3 4.3l15.6 41.5c.7 2.3 2.9 3.8 5.3 3.7h5.3c2.4.1 4.6-1.4 5.3-3.7l15.4-41.5c.7-1.4.6-3.1-.3-4.4z"/><path id="Caminho_5" class="st1" d="M228.1 215.4c-7.2-.1-14.2 2.6-19.5 7.6-5.3 4.9-8.2 11.9-8 19.2-.2 7.3 2.8 14.2 8 19.2 11 10.2 28 10.2 38.9 0 5.3-5 8.2-12 8.1-19.2.2-7.2-2.7-14.2-8-19.2-5.2-5.1-12.3-7.8-19.5-7.6zm10.1 37.7c-5.6 5.6-14.7 5.6-20.3.1l-.1-.1c-2.8-2.9-4.4-6.8-4.2-10.9-.2-4 1.4-7.9 4.2-10.8 2.7-2.8 6.4-4.3 10.2-4.2 3.8-.1 7.6 1.4 10.2 4.2 2.9 2.8 4.4 6.8 4.2 10.8.3 4-1.3 8-4.2 10.9z"/><path id="Caminho_6" class="st1" d="M275 256.3c-.8-.1-2.6-.2-2.6-4.4v-49.2c.2-2.5-1.6-4.8-4.2-5h-3.8c-2.5-.2-4.8 1.6-5 4.2V253c0 10 5 15.3 14.6 15.3 2.6.2 4.9-1.7 5.1-4.2V260.9c.3-2.4-1.6-4.5-4.1-4.6.1 0 .1 0 0 0z"/><path id="Caminho_7" class="st1" d="M322.6 216.5h-2.9c-2.5-.2-4.8 1.6-5 4.2V240.8c.1 4.2-1.2 8.2-3.8 11.5-2.3 3-6 4.7-9.8 4.5-2 .3-4-.5-5.3-2.1-1.3-2.4-1.9-5.1-1.7-7.8v-25.3c.3-2.5-1.6-4.7-4.1-5h-3.7c-2.5-.2-4.8 1.6-5 4.2V249.1c0 16.7 9.8 20.2 18.1 20.2 4.4.1 8.7-1.3 12.3-3.9 1.2-.9 2.4-1.9 3.4-3v.8c-.2 2.5 1.6 4.8 4.2 5h3.5c2.5.2 4.8-1.6 5-4.2v-42.3c.2-2.5-1.6-4.8-4.2-5-.4-.2-.7-.2-1-.2z"/><path id="Caminho_8" class="st1" d="M357.1 256.3c-5-.4-7.3-3.1-7.3-8.8v-19.2h6.5c2.5.2 4.7-1.7 4.9-4.2V222c.2-2.5-1.6-4.8-4.2-5H349.7v-8.5c.2-2.5-1.6-4.8-4.2-5h-3.6c-2.5-.2-4.8 1.6-5 4.2v9.4h-1.5c-2.5-.2-4.8 1.6-5 4.2v2.1c-.3 2.5 1.6 4.7 4.1 5h2.2v20.7c-.3 5.3 1.7 10.5 5.5 14.3 3.8 3.5 8.9 5.3 14.1 5.1 3.5 0 5.7-1.9 5.7-5v-2c.1-1.3-.4-2.7-1.3-3.7s-2.2-1.5-3.6-1.5z"/><path id="Ret창ngulo_1" class="st1" d="M370.9 197.7c3.7 0 6.7 2.9 6.7 6.6 0 3.6-2.9 6.6-6.6 6.6h-.1c-3.6 0-6.6-2.9-6.6-6.6 0-3.7 3-6.6 6.6-6.6z"/><path id="Ret창ngulo_2" class="st1" d="M370.9 216.5c3.6 0 6.5 2.9 6.5 6.5v38.5c0 3.6-2.9 6.5-6.5 6.5s-6.5-2.9-6.5-6.5V223c0-3.6 2.9-6.5 6.5-6.5z"/><path id="Caminho_9" class="st1" d="M408.8 215.4c-7.2-.1-14.2 2.6-19.5 7.6-5.3 5-8.2 11.9-8 19.2-.2 7.3 2.7 14.2 8 19.2 11 10.2 28 10.2 38.9 0 5.3-5 8.2-12 8.1-19.2.2-7.2-2.7-14.2-8-19.2-5.2-5.1-12.3-7.8-19.5-7.6zm10.2 37.7c-5.6 5.6-14.6 5.6-20.3.1l-.1-.1c-2.8-2.9-4.4-6.8-4.3-10.9-.1-4 1.4-7.9 4.2-10.8 2.7-2.8 6.4-4.3 10.2-4.2 3.9-.1 7.6 1.4 10.2 4.2 2.9 2.8 4.4 6.8 4.2 10.8.3 4-1.3 8-4.1 10.9z"/><path id="Caminho_10" class="st1" d="M468.9 215.4c-4.6-.1-9 1.3-12.7 4-1.2.9-2.3 1.9-3.3 2.9v-.8c.2-2.5-1.6-4.8-4.2-5h-3.5c-2.5-.2-4.8 1.6-5 4.2V263c-.2 2.5 1.6 4.8 4.2 5h3.8c2.5.2 4.8-1.6 5-4.2V243.2c-.1-4.1 1.3-8.1 4-11.2 2.5-2.9 6.1-4.5 10-4.4 2.7 0 4.5.7 5.4 2.1 1.3 2.5 1.8 5.2 1.6 8V263c-.2 2.5 1.6 4.8 4.2 5h3.8c2.5.2 4.8-1.6 5-4.2V235.5c-.1-16.6-10-20.1-18.3-20.1z"/><path id="Caminho_11" class="st0" d="M130.9 213.3c-6.9-.2-13.6 2.5-18.5 7.4-4.9 5.2-7.5 12.2-7.2 19.4-.4 14.4 10.8 26.4 25.2 26.8h1.9c6.1 0 12.1-1.8 17.1-5.3 2.2-1.2 3.1-4 1.9-6.2-.1-.2-.2-.4-.3-.5l-.8-1.4c-.7-1.6-2.3-2.6-4-2.6-1.1 0-2.1.4-3.1 1-2.9 2.2-6.5 3.4-10.2 3.4-3.7.1-7.3-1.2-10.1-3.7a14.2 14.2 0 0 1-4.3-8.6h29.7c1.4 0 2.7-.5 3.7-1.5.9-1 1.4-2.2 1.4-3.6.3-6.4-1.8-12.7-5.9-17.6-4.2-4.8-10.2-7.4-16.5-7zm-11.7 19.8c.6-2.3 1.9-4.3 3.6-5.9 2.2-2 5-3 7.9-2.9 2.6-.1 5 .9 6.8 2.7 1.5 1.7 2.5 3.8 2.7 6.1h-21z"/><path id="Caminho_12" class="st0" d="M199.5 216.2c-.9-1.2-2.4-1.9-4-1.8h-3.2c-2.4-.1-4.6 1.5-5.3 3.8l-10.7 29.6-10.7-29.5c-.7-2.4-2.8-3.9-5.3-3.8h-3.2c-1.5-.1-3 .6-3.9 1.8-.8 1.3-.9 2.9-.3 4.3l15.6 41.5c.7 2.3 2.9 3.8 5.3 3.7h5.3c2.4.1 4.6-1.4 5.3-3.7l15.4-41.5c.7-1.4.6-3.1-.3-4.4z"/><path id="Caminho_13" class="st0" d="M225.6 213.3c-7.2-.1-14.2 2.6-19.5 7.6-5.3 5-8.2 11.9-8 19.2-.2 7.3 2.8 14.2 8 19.2 11 10.2 28 10.2 38.9 0 5.3-5 8.2-12 8.1-19.2.2-7.2-2.7-14.2-8-19.2-5.1-5.1-12.2-7.8-19.5-7.6zm10.3 37.7c-5.6 5.6-14.6 5.6-20.3.1l-.1-.1c-2.8-2.9-4.4-6.8-4.2-10.9-.2-4 1.4-7.9 4.2-10.8 2.7-2.8 6.4-4.3 10.2-4.2 3.9-.1 7.6 1.4 10.2 4.2 2.9 2.8 4.4 6.8 4.2 10.8.1 4-1.4 7.9-4.2 10.9z"/><path id="Caminho_14" class="st0" d="M272.6 254.2c-.8-.1-2.6-.2-2.6-4.4v-49.2c.2-2.5-1.6-4.8-4.2-5H262c-2.5-.2-4.8 1.6-5 4.2V251c0 10 5.1 15.3 14.6 15.3 2.6.2 4.9-1.7 5.1-4.2V258.9c.3-2.5-1.6-4.6-4.1-4.7.1 0 .1 0 0 0z"/><path id="Caminho_15" class="st0" d="M320.2 214.4h-2.9c-2.5-.2-4.8 1.6-5 4.2V238.7c.1 4.2-1.2 8.2-3.8 11.5-2.3 3-6 4.7-9.8 4.5-2 .3-4-.6-5.3-2.1-1.3-2.4-1.9-5.1-1.7-7.8v-25.3c.3-2.5-1.6-4.7-4.1-5h-3.7c-2.5-.2-4.8 1.6-5 4.2V247c0 16.7 9.8 20.2 18.1 20.2 4.4.1 8.7-1.3 12.3-3.9 1.2-.9 2.4-1.9 3.4-3v.8c-.2 2.5 1.6 4.8 4.2 5h3.5c2.5.2 4.8-1.6 5-4.2v-42.3c.2-2.5-1.6-4.8-4.2-5-.4-.2-.7-.2-1-.2z"/><path id="Caminho_16" class="st0" d="M354.7 254.2c-5-.4-7.3-3.1-7.3-8.8v-19.2h6.5c2.5.2 4.7-1.7 4.9-4.2v-2c.2-2.5-1.6-4.8-4.2-5H347.3v-8.5c.2-2.5-1.6-4.8-4.2-5h-3.6c-2.5-.2-4.8 1.6-5 4.2v9.4H333c-2.5-.2-4.8 1.6-5 4.2v2.1c-.3 2.5 1.6 4.7 4.1 5h2.2v20.7c-.3 5.3 1.7 10.5 5.5 14.3 3.8 3.5 8.9 5.3 14.1 5.1 3.6 0 5.7-1.9 5.7-5v-2c.1-1.3-.4-2.7-1.3-3.7-.9-1.1-2.2-1.6-3.6-1.6z"/><path id="Caminho_17" class="st0" d="M370.2 195.6H367c-2.5-.2-4.8 1.6-5 4.2v4c-.2 2.5 1.6 4.8 4.2 5H370.3c2.5.2 4.8-1.6 5-4.2v-4c.2-2.5-1.6-4.8-4.2-5-.4-.1-.7-.1-.9 0z"/><path id="Ret창ngulo_3" class="st0" d="M368.5 214.4c3.6 0 6.5 2.9 6.5 6.5v38.5c0 3.6-2.9 6.5-6.5 6.5s-6.5-2.9-6.5-6.5v-38.5c0-3.6 2.9-6.5 6.5-6.5z"/><path id="Caminho_18" class="st0" d="M406.4 213.3c-7.2-.1-14.2 2.6-19.5 7.6-5.3 4.9-8.2 11.9-8 19.2-.2 7.3 2.7 14.2 8 19.2 11 10.2 28 10.2 38.9 0 5.3-5 8.2-12 8.1-19.2.2-7.2-2.7-14.2-8-19.2-5.2-5.1-12.3-7.8-19.5-7.6zm10.2 37.7c-5.6 5.6-14.7 5.6-20.3.1l-.1-.1c-2.8-2.9-4.4-6.8-4.2-10.9-.2-4 1.4-7.9 4.2-10.8 2.7-2.8 6.4-4.3 10.2-4.2 3.9-.1 7.6 1.4 10.2 4.2 2.9 2.8 4.4 6.8 4.2 10.8.2 4-1.4 7.9-4.2 10.9z"/><path id="Caminho_19" class="st0" d="M466.5 213.3c-4.6-.1-9 1.3-12.7 4-1.2.9-2.3 1.9-3.3 2.9v-.8c.2-2.5-1.6-4.8-4.2-5h-3.5c-2.5-.2-4.8 1.6-5 4.2v42.3c-.2 2.5 1.6 4.8 4.2 5h3.8c2.5.2 4.8-1.6 5-4.2V241.1c-.1-4.1 1.3-8.1 4-11.2 2.5-2.9 6.1-4.5 9.9-4.4 2.7 0 4.5.7 5.4 2.1 1.3 2.5 1.8 5.2 1.6 8v25.3c-.2 2.5 1.6 4.8 4.2 5h3.8c2.5.2 4.8-1.6 5-4.2V233.4c0-16.7-9.9-20.1-18.2-20.1z"/><path id="Caminho_20" class="st0" d="M237.1 297.6c-22.3-1-39.1-8.9-52.7-25-.6-.8-.7-1.9-.1-2.8.3-.4.8-.7 1.4-.7.4 0 .7.2 1 .4 9.3 8.2 20.4 12.3 34.9 12.9 14.2.6 30.4-2.2 47.7-5.2 21.2-3.7 45.3-7.8 71.3-6.7 26.3 1 52 7.8 75.4 19.9.9.5 1.3 1.6.9 2.6-.2.7-.9 1.2-1.7 1.2-.2 0-.4-.1-.6-.1-15.4-7.1-32.1-11-49.1-11.5-24.2-1-47.9 3.6-70.7 8-20.4 4-39.8 7.8-57.7 7z"/><path id="Caminho_21" class="st2" d="M130.9 215.2c-6.4-.2-12.6 2.3-17.1 6.9-4.5 4.9-6.9 11.4-6.7 18.1-.4 13.3 10 24.5 23.3 24.9h1.9c5.8 0 11.4-1.7 16.1-5.1 1.3-.6 1.9-2.3 1.3-3.6-.1-.2-.2-.4-.3-.5l-.8-1.4c-.6-1.4-2.2-2-3.6-1.4-.2.1-.4.2-.6.4-3.3 2.5-7.3 3.8-11.4 3.8-4.2.1-8.3-1.4-11.4-4.2-3.2-3.1-5-7.4-5.1-11.8h31.8c.9 0 1.7-.3 2.3-.9.6-.6.9-1.4.9-2.3.3-5.9-1.6-11.8-5.5-16.4-3.9-4.5-9.4-6.9-15.1-6.5zM116.8 235c.5-3.5 2.1-6.8 4.8-9.3 2.5-2.3 5.8-3.5 9.2-3.4 3.1-.1 6.1 1.1 8.2 3.3 2.3 2.6 3.5 5.9 3.4 9.4h-25.6z"/><path id="Caminho_22" class="st2" d="M195.6 216.3h-3.2c-1.6-.1-3.1 1-3.5 2.5l-10.7 29.6c-.6 1.8-1.1 3.9-1.7 6.5h-.2l-1.7-6.5-10.7-29.6c-.4-1.6-1.9-2.6-3.5-2.5h-3.2c-.9-.1-1.8.3-2.4 1-.4.8-.5 1.8-.1 2.6l15.6 41.6c.4 1.5 1.9 2.6 3.5 2.4h5.3c1.6.1 3-.9 3.5-2.4l15.4-41.6c.4-.8.4-1.8 0-2.6-.6-.7-1.5-1.1-2.4-1z"/><path id="Caminho_23" class="st2" d="M225.6 215.2c-6.7-.1-13.3 2.4-18.1 7.1-4.9 4.6-7.6 11.1-7.4 17.8-.2 6.7 2.5 13.2 7.4 17.9 10.2 9.5 26.1 9.5 36.3 0 4.9-4.6 7.7-11.1 7.5-17.9.2-6.7-2.5-13.2-7.4-17.8-4.9-4.8-11.5-7.3-18.3-7.1zm11.6 37.1c-6.3 6.4-16.6 6.4-23 .1l-.2-.2c-3.2-3.3-4.9-7.7-4.8-12.2-.1-4.5 1.6-8.9 4.8-12.1 3-3.1 7.2-4.9 11.6-4.8 4.4-.1 8.6 1.6 11.6 4.8 3.2 3.2 4.9 7.6 4.8 12.1.2 4.6-1.6 9-4.8 12.3z"/><path id="Caminho_24" class="st2" d="M272.5 256.1c-2.9-.2-4.3-2.4-4.3-6.3v-49.2c.2-1.5-.8-2.9-2.3-3.1h-3.7c-1.5-.2-2.9.8-3.1 2.3V250.9c0 8.9 4.2 13.4 12.7 13.4 1.5.2 3-.9 3.2-2.4V258.8c.1-1.4-.8-2.6-2.2-2.7h-.3z"/><path id="Caminho_25" class="st2" d="M320.2 216.3h-2.9c-1.5-.2-2.9.8-3.1 2.3v20c.1 4.6-1.4 9.1-4.2 12.7-2.7 3.5-6.9 5.4-11.3 5.3-2.7.3-5.3-.8-6.9-3-1.5-2.7-2.2-5.8-2-8.9v-25.3c.2-1.5-.8-2.9-2.2-3.1h-3.7c-1.5-.2-2.9.8-3.1 2.3v28.2c0 12.2 5.4 18.2 16.2 18.2 4 .1 7.9-1.1 11.1-3.5 2.8-2 5.1-4.6 6.6-7.7h.2l-.3 2.7v4.2c-.2 1.5.8 2.9 2.3 3.1H320.3c1.5.2 2.9-.8 3.1-2.3V219.3c.2-1.5-.8-2.9-2.3-3.1-.3.1-.6 0-.9.1z"/><path id="Caminho_26" class="st2" d="M354.6 256.1c-6-.4-9-4-9-10.7v-21.2h8.4c1.5.2 2.8-.9 3-2.3v-2c.2-1.5-.8-2.9-2.3-3.1H345.6v-10.4c.2-1.5-.8-2.9-2.3-3.1h-3.5c-1.5-.2-2.9.8-3.1 2.3V216.8h-3.4c-1.5-.2-2.9.8-3.1 2.3v2c-.2 1.5.8 2.9 2.2 3.1h4.1v22.6c-.3 4.8 1.5 9.5 4.9 12.9 3.5 3.2 8.1 4.8 12.8 4.6 2.5 0 3.8-1 3.8-3.1v-2c.1-.8-.2-1.6-.7-2.3-.9-.5-1.8-.8-2.7-.8z"/><path id="Caminho_27" class="st2" d="M370 216.3h-2.9c-1.5-.2-2.9.8-3.1 2.3V260.8c-.2 1.5.8 2.9 2.3 3.1h3.7c1.5.2 2.9-.8 3.1-2.3V219.4c.2-1.5-.8-2.9-2.3-3.1-.3-.1-.6-.1-.8 0z"/><path id="Ret창ngulo_4" class="st2" d="M368.2 197.5h.7c2.4 0 4.3 1.9 4.3 4.3v.6c0 2.4-1.9 4.3-4.3 4.3h-.7c-2.4 0-4.3-1.9-4.3-4.3v-.6c0-2.4 1.9-4.3 4.3-4.3z"/><path id="Caminho_28" class="st2" d="M406.4 215.2c-6.7-.1-13.3 2.4-18.1 7.1-4.9 4.6-7.6 11.1-7.4 17.8-.2 6.7 2.5 13.2 7.4 17.9 10.2 9.5 26.1 9.5 36.3 0 4.9-4.6 7.7-11.1 7.5-17.9.2-6.7-2.5-13.2-7.4-17.8-5-4.8-11.6-7.3-18.3-7.1zm11.5 37.1c-6.3 6.4-16.6 6.4-23 .1l-.2-.2c-3.2-3.3-4.9-7.7-4.8-12.2-.1-4.5 1.6-8.9 4.8-12.1 3-3.1 7.2-4.9 11.6-4.8 4.4-.1 8.6 1.6 11.6 4.8 3.2 3.2 4.9 7.6 4.8 12.1.2 4.6-1.6 9-4.8 12.3z"/><path id="Caminho_29" class="st2" d="M466.5 215.2c-4.1-.1-8.2 1.1-11.6 3.6-2.8 2-5 4.6-6.5 7.6h-.2l.3-2.7v-4.2c.2-1.5-.8-2.9-2.3-3.1H442.8c-1.5-.2-2.9.8-3.1 2.3V260.9c-.2 1.5.8 2.9 2.3 3.1h3.7c1.5.2 2.9-.8 3.1-2.3v-20.5c-.1-4.6 1.5-9.1 4.5-12.5 2.8-3.3 7-5.2 11.4-5.1 3.4 0 5.7 1 7 2.9 1.5 2.8 2.1 5.9 1.9 9v25.3c-.2 1.5.8 2.9 2.3 3.1h3.7c1.5.2 2.9-.8 3.1-2.3v-28.2c.1-12.2-5.3-18.2-16.2-18.2z"/><path id="Caminho_30" class="st3" d="M143.1 234.8v1.2h-27l-.1.8h28v-1.2c.1-3.7-1.2-7.3-3.7-10.1-.2-.2-.5-.4-.7-.6 2.3 2.7 3.6 6.3 3.5 9.9z"/><path id="Caminho_31" class="st3" d="M133.4 258.8c4.3 0 8.6-1.4 12.1-4 .4-.2.8-.3 1.2-.3.1 0 .2 0 .4.1-.5-.7-.9-.8-1.2-.8-.4 0-.8.1-1.2.3-3.5 2.6-7.7 4-12 4-4.2.1-8.4-1.4-11.6-4.1l.3.3c3.2 3 7.6 4.6 12 4.5z"/><path id="Caminho_32" class="st3" d="M115.2 223.5c4.3-4.3 10.2-6.7 16.3-6.5 4-.2 8 1 11.3 3.2-3.4-2.8-7.7-4.2-12.1-4-6.1-.2-12 2.2-16.3 6.5-4.3 4.7-6.6 10.9-6.3 17.2-.2 6.3 2.3 12.5 6.7 17 .2.2.5.3.7.5-4.3-4.5-6.7-10.6-6.5-16.8-.4-6.3 1.9-12.5 6.2-17.1z"/><path id="Caminho_33" class="st3" d="M177.7 256.7l.4-.9c.6-2.5 1.1-4.7 1.7-6.4l10.7-29.5c.2-1.1 1.3-1.9 2.4-1.8h3.2c.3 0 .5 0 .8.1 0-.1-.1-.2-.1-.3-.1-.1-.4-.5-1.5-.5h-3.2c-1.1-.1-2.2.7-2.4 1.8L179 248.6c-.6 1.7-1.1 3.9-1.7 6.4l-.4.9h-1.2l.2.8h1.8z"/><path id="Caminho_34" class="st3" d="M156.4 220.1c-.2-.5-.3-1.1 0-1.6.2-.3.7-.5 1.4-.5h3.2c.4 0 .8.1 1.2.3-.4-.7-1.2-1.1-2-1H157c-.7 0-1.2.2-1.4.5-.2.5-.2 1.1 0 1.6l15.6 41.5c.2.6.6 1.1 1.2 1.4l-.3-.6-15.7-41.6z"/><path id="Caminho_35" class="st3" d="M208.8 223.7c9.7-8.8 24.4-9 34.3-.4-.1-.1-.2-.3-.4-.4-9.8-9-24.9-9-34.8 0-4.7 4.4-7.2 10.5-7.1 16.9-.2 6.4 2.4 12.6 7.1 17 .2.2.3.3.5.4-4.4-4.4-6.9-10.4-6.7-16.7-.1-6.3 2.4-12.4 7.1-16.8z"/><path id="Caminho_36" class="st3" d="M242.8 239.8c.1 4.9-1.7 9.6-5.1 13.1-6.5 6.6-17.2 6.9-24 .5l.1.1c6.7 6.9 17.7 7 24.6.3l.2-.2c3.4-3.5 5.3-8.2 5.1-13.1.1-4.8-1.7-9.5-5.1-12.9-.2-.2-.5-.4-.7-.6 3.2 3.5 5 8.1 4.9 12.8z"/><path id="Caminho_37" class="st3" d="M272.8 257.8c.2 0 .3.1.5.1-.2-.5-.6-.8-1.3-.9-1-.1-2-.4-2.8-1 .9 1.1 2.2 1.7 3.6 1.8z"/><path id="Caminho_38" class="st3" d="M260.6 201.2c0-1.4.5-2 2-2h2.9c.3 0 .6 0 .9.1-.3-.6-.8-.9-1.7-.9h-2.9c-1.4 0-2 .5-2 2v50.2c0 4.6 1.2 7.8 3.5 9.8-2-2.6-2.9-5.8-2.7-9v-50.2z"/><path id="Caminho_39" class="st3" d="M299.1 258.3c4.7.1 9.2-2 12.2-5.7 3-3.8 4.6-8.5 4.5-13.4V220c0-1.4.5-2 2-2h2.9c.3 0 .6 0 .9.1-.3-.6-.8-.9-1.7-.9H317c-1.4 0-2 .5-2 2v19.2c.1 4.9-1.5 9.6-4.5 13.4-2.9 3.7-7.4 5.8-12.2 5.7-2.2.1-4.3-.5-6.1-1.7 1.8 1.7 4.3 2.6 6.9 2.5z"/><path id="Caminho_40" class="st3" d="M282.3 220c0-1.4.5-2 2-2h2.9c.3 0 .6 0 .8.1-.2-.6-.7-.9-1.7-.9h-2.9c-1.4 0-2 .5-2 2v27.3c0 6.3 1.5 10.8 4.5 13.6-2.5-2.8-3.7-7.1-3.7-12.8V220z"/><path id="Caminho_41" class="st3" d="M316 257.1l.4-3.9h-.9l-.3 3.1v4.2c0 1.1.3 1.6 1 1.9-.1-.3-.2-.7-.2-1.1v-4.2z"/><path id="Caminho_42" class="st3" d="M337.9 223.7h-.9v22.9c-.3 4.5 1.4 8.8 4.5 12 .2.2.4.3.6.4-3-3.2-4.5-7.4-4.3-11.7l.1-23.6z"/><path id="Caminho_43" class="st3" d="M331.6 220.5c0-1.4.5-2 2-2h4.5V207c0-1.4.5-2 2-2h2.7c.3 0 .6 0 .9.1-.3-.6-.8-.9-1.7-.9h-2.7c-1.4 0-2 .5-2 2v11.6h-4.5c-1.4 0-2 .5-2 2v1.2c0 1.1.3 1.6 1 1.9-.1-.3-.2-.7-.2-1.1v-1.3z"/><path id="Caminho_44" class="st3" d="M354.1 218.5c.3 0 .6 0 .9.1-.3-.6-.8-.9-1.7-.9h-8.6v.8h9.4z"/><path id="Caminho_45" class="st3" d="M356.1 258c0-.2-.1-.3-.2-.5-.6-.4-1.2-.6-1.9-.5-2.1-.1-4.2-.8-6-2 1.9 1.7 4.3 2.7 6.8 2.7.4.1.8.2 1.3.3z"/><path id="Caminho_46" class="st3" d="M365.4 220c0-1.4.5-2 2-2h2.9c.3 0 .6 0 .9.1-.3-.6-.8-.9-1.8-.9h-2.9c-1.4 0-2 .5-2 2v41.3c0 1.1.3 1.6 1 1.9-.1-.3-.2-.7-.2-1.1l.1-41.3z"/><path id="Caminho_47" class="st3" d="M365.3 201.2c0-1.4.5-2 2-2h3.2c.3 0 .6 0 .9.1-.3-.6-.8-.9-1.7-.9h-3.2c-1.4 0-2 .5-2 2v3.1c0 1.1.3 1.6 1 1.9-.1-.3-.2-.7-.2-1.1v-3.1z"/><path id="Caminho_48" class="st3" d="M423.2 239.8c.1 4.9-1.7 9.6-5.1 13.1-6.5 6.6-17.2 6.9-24 .5l.1.1c6.7 6.9 17.7 7 24.6.3l.2-.2c3.4-3.5 5.2-8.2 5.1-13.1.1-4.8-1.7-9.5-5.1-12.9-.2-.2-.5-.4-.7-.6 3.3 3.5 5.1 8.1 4.9 12.8z"/><path id="Caminho_49" class="st3" d="M389.3 223.7c9.7-8.8 24.4-9 34.3-.4-.1-.1-.2-.3-.4-.4-9.9-9-24.9-9-34.8 0-4.7 4.4-7.2 10.5-7.1 16.9-.2 6.4 2.4 12.6 7.1 17 .2.2.3.3.5.4-4.4-4.4-6.9-10.4-6.7-16.7-.2-6.3 2.4-12.4 7.1-16.8z"/><path id="Caminho_50" class="st3" d="M475 236.1c.2-3.3-.5-6.7-2.1-9.6-.5-.7-1-1.2-1.7-1.7.3.3.6.6.9 1 1.6 2.9 2.4 6.3 2.1 9.6v25.3c0 1.1.3 1.6 1 1.9-.1-.3-.2-.7-.2-1.1v-25.4z"/><path id="Caminho_51" class="st3" d="M441.1 220c0-1.4.5-2 2-2h2.6c.3 0 .6 0 .9.1-.3-.6-.8-.9-1.7-.9h-2.6c-1.4 0-2 .5-2 2v41.3c0 1.1.3 1.6 1 1.9-.1-.3-.2-.7-.2-1.1V220z"/><path id="Caminho_52" class="st3" d="M449.2 228.1l.5-.7c1.4-2.9 3.5-5.3 6.1-7.2 3.1-2.3 7-3.5 10.9-3.3 3.8-.2 7.6 1 10.6 3.5-2.5-2.9-6.3-4.3-11.4-4.3-3.9-.1-7.7 1-10.9 3.3-2.6 1.8-4.7 4.3-6.1 7.2l-.5.7h-1.1l-.1.8h2z"/><path id="Caminho_53" class="st2" d="M186.1 271.5c-.1-.1-.3-.2-.4-.3 52.9 62.7 142-19.5 229.7 21.1-102.7-52.4-182.2 19.9-229.3-20.8z"/><path id="Caminho_54" class="st3" d="M415.4 292.3c-102.6-52.3-182.2 19.9-229.3-20.8 49.3 50.8 136.1-23.8 229.3 20.8z"/><g id="Grupo_1-2" transform="translate(251.608 184.769)"><path id="Caminho_55" class="st0" d="M142.7 9.1c0-1.4.5-2.7 1.5-3.7 1.1-1.1 2.6-1.7 4.1-1.6 1.2 0 2.3.3 3.3.9.6.4.6.8.2 1.5l-.3.5c-.3.5-.9.7-1.3.4 0 0-.1 0-.1-.1-.5-.2-1-.4-1.5-.4-.7 0-1.3.2-1.8.7-.4.5-.7 1.1-.7 1.7 0 .7.2 1.3.7 1.8.5.5 1.2.8 1.8.7.7 0 1.3-.2 1.8-.6.7-.4 1.2-.2 1.5.4l.3.5c.3.5.2 1.1-.2 1.4h-.1c-1.1.7-2.3 1.1-3.6 1.1-1.5.1-3-.5-4.1-1.6-1-.9-1.5-2.2-1.5-3.6z"/><path id="Caminho_56" class="st0" d="M158.1 3.8c1.5 0 3 .5 4.1 1.5 2.1 2 2.2 5.3.3 7.4l-.3.3a6.61 6.61 0 0 1-8.2 0c-1.1-1-1.7-2.4-1.7-3.8 0-1.5.6-2.9 1.7-3.8 1.2-1.1 2.6-1.7 4.1-1.6zm-2.2 5.3c0 .7.2 1.3.7 1.8.9.9 2.4.9 3.3 0 .4-.5.7-1.1.7-1.8s-.2-1.3-.7-1.8c-.9-.9-2.3-.9-3.2-.1l-.1.1c-.5.5-.8 1.1-.7 1.8z"/><path id="Caminho_57" class="st0" d="M164.8 10.4V1.1c-.1-.5.3-1 .8-1.1h1.5c.5-.1 1 .3 1.1.8v9.4c0 .6.2.9.6 1 .4 0 .8.4.8.8v1.1c.1.5-.3 1-.8 1.1h-.3c-.9 0-1.7-.2-2.5-.6-.8-.5-1.2-1.6-1.2-3.2z"/><path id="Caminho_58" class="st0" d="M169.8 9.1c0-1.4.5-2.7 1.5-3.7 1.1-1.1 2.6-1.7 4.1-1.6 1.2 0 2.3.3 3.3.9.6.4.6.8.2 1.5l-.3.5c-.3.5-.9.7-1.3.4 0 0-.1 0-.1-.1-.5-.2-1-.4-1.5-.4-.7 0-1.3.2-1.8.7-.4.5-.7 1.1-.7 1.7 0 .7.2 1.3.7 1.8.5.5 1.2.8 1.8.7.7 0 1.3-.2 1.8-.6.7-.4 1.2-.2 1.5.4l.3.5c.3.5.2 1.1-.2 1.4h-.1c-1.1.7-2.3 1.1-3.6 1.1-1.5.1-3-.5-4.1-1.6-1-.9-1.6-2.2-1.5-3.6z"/><path id="Caminho_59" class="st0" d="M180.3 13.1v-12c-.1-.5.3-1 .8-1.1h1.5c.5-.1 1 .3 1.1.8v4.6c.3-.5.7-.9 1.3-1.2.6-.3 1.2-.4 1.8-.4 2.4 0 3.6 1.3 3.6 3.8v5.5c.1.5-.3 1-.8 1.1h-1.5c-.5.1-1-.3-1.1-.8V8.2c0-.9-.4-1.3-1.1-1.3-.6 0-1.2.2-1.6.7-.4.6-.6 1.3-.6 2v3.5c.1.5-.3 1-.8 1.1h-1.5c-.5.1-1-.3-1.1-.8v-.3z"/><path id="Caminho_60" class="st0" d="M196.9 3.8c1.5 0 3 .5 4.1 1.5 2.1 2 2.2 5.3.3 7.4l-.3.3a6.61 6.61 0 0 1-8.2 0c-1.1-1-1.7-2.4-1.7-3.8 0-1.5.6-2.9 1.7-3.8 1.2-1.1 2.6-1.7 4.1-1.6zm-2.6-.8h-.3c-.6 0-.9-.3-.9-.9 0-.6.2-1.1.6-1.5.4-.4 1-.6 1.6-.6.6 0 1.2.2 1.7.6.3.3.7.5 1.1.6.3 0 .6-.2.6-.6 0-.4.3-.5.9-.5h.2c.6 0 .9.3 1 .8 0 1.2-.9 2.1-2 2.2h-.2c-.8-.1-1.5-.4-2.1-.9-.3-.2-.6-.3-.9-.3-.2.1-.4.3-.4.6-.1.3-.4.5-.9.5zm.4 6.1c0 .7.2 1.3.7 1.8.9.9 2.4.9 3.3 0 .4-.5.7-1.1.7-1.8s-.2-1.3-.7-1.8c-.9-.9-2.3-.9-3.2-.1l-.1.1c-.5.5-.8 1.1-.7 1.8z"/><path id="Caminho_61" class="st0" d="M203.1 9.1c0-1.4.5-2.8 1.4-3.8 1-1 2.4-1.6 3.8-1.5 1.3-.1 2.5.4 3.4 1.4.9.9 1.3 2.2 1.3 3.5 0 .3-.1.6-.3.8-.2.2-.5.3-.8.3h-5.3c.1.5.4 1 .8 1.3.4.3 1 .5 1.5.5.6 0 1.3-.2 1.9-.5.4-.3 1.1-.2 1.4.3 0 0 .1.1.1.2l.3.5c.3.4.2 1-.2 1.4-.1 0-.1.1-.2.1-1.1.6-2.3.9-3.5.9-1.5.1-3-.5-4.1-1.6-1-1.1-1.5-2.4-1.5-3.8zm3.5-1.3h3c0-.4-.1-.8-.4-1.1-.3-.3-.6-.4-1-.4-.8 0-1.3.5-1.6 1.5z"/><path id="Caminho_62" class="st0" d="M214.5 13.5c-.6-.3-.7-.8-.3-1.5l.3-.5c.3-.5 1-.6 1.5-.3.6.3 1.3.5 1.9.5.6 0 .9-.2.9-.6 0-.2-.1-.3-.4-.5-.4-.2-.8-.4-1.3-.5-2.1-.6-3.1-1.6-3.1-3.2 0-.9.4-1.8 1.2-2.4.9-.6 2-.9 3-.8 1 0 2 .2 2.9.6.6.3.7.8.4 1.5l-.2.5c-.2.5-.8.7-1.3.5 0 0-.1 0-.1-.1-.6-.2-1.1-.4-1.7-.4-.6 0-.9.2-.9.5 0 .2.1.3.4.5.3.1.6.3.9.3.4.1.8.2 1.1.4.4.2.8.3 1.1.6.4.2.7.5.9.9.2.4.4.9.4 1.4 0 .9-.4 1.8-1.1 2.4-.9.7-1.9 1-3 .9-1.3.2-2.5-.1-3.5-.7z"/></g></g></svg>