<?xml version="1.0" encoding="utf-8"?>
<!-- Generator: Adobe Illustrator 25.2.1, SVG Export Plug-In . SVG Version: 6.00 Build 0)  -->
<svg version="1.1" id="Camada_1" xmlns="http://www.w3.org/2000/svg" xmlns:xlink="http://www.w3.org/1999/xlink" x="0px" y="0px"
	 viewBox="0 0 406.8 121.7" style="enable-background:new 0 0 406.8 121.7;" xml:space="preserve">
<style type="text/css">
	.st0{fill:#FFFFFF;}
	.st1{fill:#E9E9EB;}
	.st2{fill:#00A1E0;}
	.st3{fill:#6BC7F3;}
</style>
<g id="Grupo_1" transform="translate(-95.658 -184.769)">
	<path id="Caminho_1" class="st0" d="M483.4,209.5c-4.9-3.5-10.8-5.3-16.9-5.1c-4.7-0.1-9.4,1-13.7,3.1c-2.2-1.3-4.8-2-7.3-1.9h-2.6
		c-5.2-0.2-10.1,2.8-12.4,7.5c-14-11.5-34.1-11.5-48,0c-0.2-0.5-0.5-0.9-0.8-1.4c1.6-2.4,2.4-5.2,2.3-8v-3.1
		c0.3-7.4-5.5-13.5-12.9-13.8c-0.3,0-0.6,0-0.9,0H367c-6.6-0.2-12.4,4.4-13.5,10.9c-2.6-3.4-6.7-5.3-11-5.2h-2.7
		c-7.4-0.3-13.5,5.5-13.8,12.9c0,0.3,0,0.6,0,0.9v0.4c-1.8-0.7-3.7-1.1-5.7-1.1h-2.9c-7.3-0.2-13.5,5.5-13.7,12.9c0,0.2,0,0.3,0,0.5
		h-3.1c0-7.3-5.9-13.3-13.2-13.3c-0.2,0-0.3,0-0.5,0h-2.9c-1.7,0-3.4,0.3-5,0.9v-5.9c0.3-7.4-5.5-13.5-12.9-13.8c-0.3,0-0.6,0-0.9,0
		h-2.9c-7.4-0.3-13.5,5.5-13.8,12.9c0,0.3,0,0.6,0,0.9v11.4c-12.4-9.2-29.3-10-42.5-1.9c-2.6-2.9-6.4-4.6-10.3-4.4h-3.2
		c-6.1-0.2-11.6,3.7-13.5,9.6l-1.9,5.3l-1,0.2l-1.9-5.2c-1.9-5.9-7.4-9.9-13.6-9.8h-3.2c-3.4-0.1-6.8,1.2-9.3,3.5
		c-5.1-3.2-11-4.8-17-4.6c-9.3-0.2-18.3,3.5-24.8,10.2c-13.1,14.5-12.8,36.6,0.5,50.9c6.8,6.8,16.1,10.5,25.7,10.2
		c7,0,13.9-1.9,19.9-5.5c7.9,9.5,19.7,14.9,32,14.6c0.4,0,0.8,0,1.3-0.1c13.9,14,30.7,20.9,52.2,21.7c18.1,0.6,37.5-3.1,58-7.1
		c22.2-4.3,42.7-8.4,66-7.6c17.8,0.6,36.7,5.9,52.8,9c8.4,1.6,14.9-3.6,16.3-8.3c1.2-2.5,0.9-5.5-0.8-7.7c0.2,0,0.5,0,0.7,0
		c8.3,0.1,16.4-2.3,23.4-6.8c4.4,2.2,9.2,3.4,14.2,3.4c18.9,0,34.2-17,34.2-38C502.7,229.6,495.4,216.6,483.4,209.5z"/>
	<path id="Caminho_2" class="st1" d="M239.6,300.4c-22.3-1-39.1-8.9-52.7-25c-0.6-0.8-0.7-1.9-0.1-2.8c0.3-0.4,0.8-0.7,1.4-0.7
		c0.4,0,0.7,0.2,1,0.4c9.3,8.2,20.4,12.3,34.9,12.9l0,0c14.2,0.6,30.4-2.2,47.7-5.2c21.2-3.7,45.3-7.8,71.3-6.7
		c25.6,0.9,50.7,7.6,73.4,19.5c0.9,0.4-0.6,2.2-0.8,2.1c-15.1-7-29.7-8.8-47.6-9.5c-24.2-1-47.9,3.6-70.7,8
		C276.9,297.4,257.5,301.2,239.6,300.4z"/>
	<path id="Caminho_3" class="st1" d="M133.3,215.4c-6.9-0.2-13.6,2.5-18.5,7.4c-4.9,5.2-7.5,12.2-7.2,19.4
		c-0.4,14.4,10.9,26.4,25.3,26.8c0.6,0,1.2,0,1.8,0c6.1,0,12.1-1.8,17.1-5.3c2.2-1.2,3.1-4,1.9-6.2c-0.1-0.2-0.2-0.4-0.3-0.5
		l-0.8-1.4c-0.7-1.6-2.3-2.6-4-2.6c-1.1,0-2.1,0.4-3.1,0.9c-2.9,2.2-6.5,3.4-10.2,3.4c-3.7,0.1-7.3-1.2-10.1-3.7
		c-2.3-2.3-3.9-5.3-4.3-8.6h29.7c1.4,0,2.7-0.5,3.7-1.5c0.9-1,1.4-2.2,1.4-3.6c0.3-6.4-1.8-12.7-5.9-17.6
		C145.6,217.6,139.6,215.1,133.3,215.4z M121.6,235.2c0.6-2.3,1.9-4.3,3.6-5.9c2.2-2,5-3,7.9-2.9c2.6-0.1,5,0.9,6.8,2.7
		c1.5,1.7,2.5,3.8,2.7,6.1L121.6,235.2z"/>
	<path id="Caminho_4" class="st1" d="M201.9,218.3c-0.9-1.2-2.4-1.9-4-1.8h-3.2c-2.4-0.1-4.6,1.5-5.3,3.8l-10.7,29.6l-10.7-29.5
		c-0.7-2.4-2.8-3.9-5.3-3.8h-3.2c-1.5-0.1-3,0.6-3.9,1.8c-0.8,1.3-0.9,2.9-0.3,4.3l15.6,41.5c0.7,2.3,2.9,3.8,5.3,3.7h5.3
		c2.4,0.1,4.6-1.4,5.3-3.7l15.4-41.5C202.9,221.3,202.8,219.6,201.9,218.3z"/>
	<path id="Caminho_5" class="st1" d="M228.1,215.4c-7.2-0.1-14.2,2.6-19.5,7.6c-5.3,4.9-8.2,11.9-8,19.2c-0.2,7.3,2.8,14.2,8,19.2
		c11,10.2,28,10.2,38.9,0c5.3-5,8.2-12,8.1-19.2c0.2-7.2-2.7-14.2-8-19.2C242.4,217.9,235.3,215.2,228.1,215.4z M238.2,253.1
		c-5.6,5.6-14.7,5.6-20.3,0.1c0,0-0.1-0.1-0.1-0.1c-2.8-2.9-4.4-6.8-4.2-10.9c-0.2-4,1.4-7.9,4.2-10.8c2.7-2.8,6.4-4.3,10.2-4.2
		c3.8-0.1,7.6,1.4,10.2,4.2c2.9,2.8,4.4,6.8,4.2,10.8C242.7,246.2,241.1,250.2,238.2,253.1L238.2,253.1z"/>
	<path id="Caminho_6" class="st1" d="M275,256.3c-0.8-0.1-2.6-0.2-2.6-4.4v-49.2c0.2-2.5-1.6-4.8-4.2-5c-0.3,0-0.6,0-0.9,0h-2.9
		c-2.5-0.2-4.8,1.6-5,4.2c0,0.3,0,0.6,0,0.9V253c0,10,5,15.3,14.6,15.3c2.6,0.2,4.9-1.7,5.1-4.2c0-0.3,0-0.6,0-0.9v-2.3
		C279.4,258.5,277.5,256.4,275,256.3C275.1,256.3,275.1,256.3,275,256.3z"/>
	<path id="Caminho_7" class="st1" d="M322.6,216.5h-2.9c-2.5-0.2-4.8,1.6-5,4.2c0,0.3,0,0.6,0,0.9v19.2c0.1,4.2-1.2,8.2-3.8,11.5
		c-2.3,3-6,4.7-9.8,4.5c-2,0.3-4-0.5-5.3-2.1c-1.3-2.4-1.9-5.1-1.7-7.8v-25.3c0.3-2.5-1.6-4.7-4.1-5c-0.3,0-0.6,0-0.8,0h-2.9
		c-2.5-0.2-4.8,1.6-5,4.2c0,0.3,0,0.6,0,0.9v27.4c0,16.7,9.8,20.2,18.1,20.2c4.4,0.1,8.7-1.3,12.3-3.9c1.2-0.9,2.4-1.9,3.4-3v0.8
		c-0.2,2.5,1.6,4.8,4.2,5c0.3,0,0.6,0,0.9,0h2.6c2.5,0.2,4.8-1.6,5-4.2c0-0.3,0-0.6,0-0.9v-41.4c0.2-2.5-1.6-4.8-4.2-5
		C323.2,216.5,322.9,216.5,322.6,216.5z"/>
	<path id="Caminho_8" class="st1" d="M357.1,256.3c-5-0.4-7.3-3.1-7.3-8.8v-19.2h6.5c2.5,0.2,4.7-1.7,4.9-4.2c0-0.3,0-0.6,0-0.8V222
		c0.2-2.5-1.6-4.8-4.2-5c-0.3,0-0.6,0-0.9,0h-6.4v-8.5c0.2-2.5-1.6-4.8-4.2-5c-0.3,0-0.6,0-0.9,0h-2.7c-2.5-0.2-4.8,1.6-5,4.2
		c0,0.3,0,0.6,0,0.9v8.5h-1.5c-2.5-0.2-4.8,1.6-5,4.2c0,0.3,0,0.6,0,0.9v1.2c-0.3,2.5,1.6,4.7,4.1,5c0.3,0,0.6,0,0.8,0h1.4v20.7
		c-0.3,5.3,1.7,10.5,5.5,14.3c3.8,3.5,8.9,5.3,14.1,5.1c3.5,0,5.7-1.9,5.7-5v-2c0.1-1.3-0.4-2.7-1.3-3.7
		C359.8,256.8,358.5,256.3,357.1,256.3z"/>
	<path id="Ret창ngulo_1" class="st1" d="M370.9,197.7L370.9,197.7c3.7,0,6.7,2.9,6.7,6.6l0,0c0,3.6-2.9,6.6-6.6,6.6h-0.1
		c-3.6,0-6.6-2.9-6.6-6.6l0,0C364.3,200.6,367.3,197.7,370.9,197.7C370.9,197.7,370.9,197.7,370.9,197.7z"/>
	<path id="Ret창ngulo_2" class="st1" d="M370.9,216.5L370.9,216.5c3.6,0,6.5,2.9,6.5,6.5v38.5c0,3.6-2.9,6.5-6.5,6.5l0,0
		c-3.6,0-6.5-2.9-6.5-6.5V223C364.4,219.4,367.3,216.5,370.9,216.5z"/>
	<path id="Caminho_9" class="st1" d="M408.8,215.4c-7.2-0.1-14.2,2.6-19.5,7.6c-5.3,5-8.2,11.9-8,19.2c-0.2,7.3,2.7,14.2,8,19.2
		c11,10.2,28,10.2,38.9,0c5.3-5,8.2-12,8.1-19.2c0.2-7.2-2.7-14.2-8-19.2C423.1,217.9,416,215.2,408.8,215.4z M419,253.1
		c-5.6,5.6-14.6,5.6-20.3,0.1c0,0-0.1-0.1-0.1-0.1c-2.8-2.9-4.4-6.8-4.3-10.9c-0.1-4,1.4-7.9,4.2-10.8c2.7-2.8,6.4-4.3,10.2-4.2
		c3.9-0.1,7.6,1.4,10.2,4.2c2.9,2.8,4.4,6.8,4.2,10.8C423.4,246.2,421.8,250.2,419,253.1L419,253.1z"/>
	<path id="Caminho_10" class="st1" d="M468.9,215.4c-4.6-0.1-9,1.3-12.7,4c-1.2,0.9-2.3,1.9-3.3,2.9v-0.8c0.2-2.5-1.6-4.8-4.2-5
		c-0.3,0-0.6,0-0.9,0h-2.6c-2.5-0.2-4.8,1.6-5,4.2c0,0.3,0,0.6,0,0.9v41.4c-0.2,2.5,1.6,4.8,4.2,5c0.3,0,0.6,0,0.9,0h2.9
		c2.5,0.2,4.8-1.6,5-4.2c0-0.3,0-0.6,0-0.9v-19.7c-0.1-4.1,1.3-8.1,4-11.2c2.5-2.9,6.1-4.5,10-4.4c2.7,0,4.5,0.7,5.4,2.1
		c1.3,2.5,1.8,5.2,1.6,8v25.3c-0.2,2.5,1.6,4.8,4.2,5c0.3,0,0.6,0,0.9,0h2.9c2.5,0.2,4.8-1.6,5-4.2c0-0.3,0-0.6,0-0.9v-27.4
		C487.1,218.9,477.2,215.4,468.9,215.4z"/>
	<path id="Caminho_11" class="st0" d="M130.9,213.3c-6.9-0.2-13.6,2.5-18.5,7.4c-4.9,5.2-7.5,12.2-7.2,19.4
		c-0.4,14.4,10.8,26.4,25.2,26.8c0.6,0,1.3,0,1.9,0c6.1,0,12.1-1.8,17.1-5.3c2.2-1.2,3.1-4,1.9-6.2c-0.1-0.2-0.2-0.4-0.3-0.5
		l-0.8-1.4c-0.7-1.6-2.3-2.6-4-2.6c-1.1,0-2.1,0.4-3.1,1c-2.9,2.2-6.5,3.4-10.2,3.4c-3.7,0.1-7.3-1.2-10.1-3.7
		c-2.4-2.3-3.9-5.3-4.3-8.6h29.7c1.4,0,2.7-0.5,3.7-1.5c0.9-1,1.4-2.2,1.4-3.6c0.3-6.4-1.8-12.7-5.9-17.6
		C143.2,215.5,137.2,212.9,130.9,213.3z M119.2,233.1c0.6-2.3,1.9-4.3,3.6-5.9c2.2-2,5-3,7.9-2.9c2.6-0.1,5,0.9,6.8,2.7
		c1.5,1.7,2.5,3.8,2.7,6.1L119.2,233.1z"/>
	<path id="Caminho_12" class="st0" d="M199.5,216.2c-0.9-1.2-2.4-1.9-4-1.8h-3.2c-2.4-0.1-4.6,1.5-5.3,3.8l-10.7,29.6l-10.7-29.5
		c-0.7-2.4-2.8-3.9-5.3-3.8h-3.2c-1.5-0.1-3,0.6-3.9,1.8c-0.8,1.3-0.9,2.9-0.3,4.3l15.6,41.5c0.7,2.3,2.9,3.8,5.3,3.7h5.3
		c2.4,0.1,4.6-1.4,5.3-3.7l15.4-41.5C200.5,219.2,200.4,217.5,199.5,216.2z"/>
	<path id="Caminho_13" class="st0" d="M225.6,213.3c-7.2-0.1-14.2,2.6-19.5,7.6c-5.3,5-8.2,11.9-8,19.2c-0.2,7.3,2.8,14.2,8,19.2
		c11,10.2,28,10.2,38.9,0c5.3-5,8.2-12,8.1-19.2c0.2-7.2-2.7-14.2-8-19.2C240,215.8,232.9,213.1,225.6,213.3z M235.9,251
		c-5.6,5.6-14.6,5.6-20.3,0.1c0,0-0.1-0.1-0.1-0.1c-2.8-2.9-4.4-6.8-4.2-10.9c-0.2-4,1.4-7.9,4.2-10.8c2.7-2.8,6.4-4.3,10.2-4.2
		c3.9-0.1,7.6,1.4,10.2,4.2c2.9,2.8,4.4,6.8,4.2,10.8C240.2,244.1,238.7,248,235.9,251L235.9,251z"/>
	<path id="Caminho_14" class="st0" d="M272.6,254.2c-0.8-0.1-2.6-0.2-2.6-4.4v-49.2c0.2-2.5-1.6-4.8-4.2-5c-0.3,0-0.6,0-0.9,0h-2.9
		c-2.5-0.2-4.8,1.6-5,4.2c0,0.3,0,0.6,0,0.9v50.3c0,10,5.1,15.3,14.6,15.3c2.6,0.2,4.9-1.7,5.1-4.2c0-0.3,0-0.6,0-0.9v-2.3
		C277,256.4,275.1,254.3,272.6,254.2C272.7,254.2,272.7,254.2,272.6,254.2z"/>
	<path id="Caminho_15" class="st0" d="M320.2,214.4h-2.9c-2.5-0.2-4.8,1.6-5,4.2c0,0.3,0,0.6,0,0.9v19.2c0.1,4.2-1.2,8.2-3.8,11.5
		c-2.3,3-6,4.7-9.8,4.5c-2,0.3-4-0.6-5.3-2.1c-1.3-2.4-1.9-5.1-1.7-7.8v-25.3c0.3-2.5-1.6-4.7-4.1-5c-0.3,0-0.6,0-0.8,0h-2.9
		c-2.5-0.2-4.8,1.6-5,4.2c0,0.3,0,0.6,0,0.9v27.4c0,16.7,9.8,20.2,18.1,20.2c4.4,0.1,8.7-1.3,12.3-3.9c1.2-0.9,2.4-1.9,3.4-3v0.8
		c-0.2,2.5,1.6,4.8,4.2,5c0.3,0,0.6,0,0.9,0h2.6c2.5,0.2,4.8-1.6,5-4.2c0-0.3,0-0.6,0-0.9v-41.4c0.2-2.5-1.6-4.8-4.2-5
		C320.8,214.4,320.5,214.4,320.2,214.4z"/>
	<path id="Caminho_16" class="st0" d="M354.7,254.2c-5-0.4-7.3-3.1-7.3-8.8v-19.2h6.5c2.5,0.2,4.7-1.7,4.9-4.2c0-0.3,0-0.6,0-0.8
		v-1.2c0.2-2.5-1.6-4.8-4.2-5c-0.3,0-0.6,0-0.9,0h-6.4v-8.5c0.2-2.5-1.6-4.8-4.2-5c-0.3,0-0.6,0-0.9,0h-2.7c-2.5-0.2-4.8,1.6-5,4.2
		c0,0.3,0,0.6,0,0.9v8.5h-1.5c-2.5-0.2-4.8,1.6-5,4.2c0,0.3,0,0.6,0,0.9v1.2c-0.3,2.5,1.6,4.7,4.1,5c0.3,0,0.6,0,0.8,0h1.4v20.7
		c-0.3,5.3,1.7,10.5,5.5,14.3c3.8,3.5,8.9,5.3,14.1,5.1c3.6,0,5.7-1.9,5.7-5v-2c0.1-1.3-0.4-2.7-1.3-3.7
		C357.4,254.7,356.1,254.2,354.7,254.2z"/>
	<path id="Caminho_17" class="st0" d="M370.2,195.6H367c-2.5-0.2-4.8,1.6-5,4.2c0,0.3,0,0.6,0,0.9v3.1c-0.2,2.5,1.6,4.8,4.2,5
		c0.3,0,0.6,0,0.9,0h3.2c2.5,0.2,4.8-1.6,5-4.2c0-0.3,0-0.6,0-0.9v-3.1c0.2-2.5-1.6-4.8-4.2-5C370.7,195.5,370.4,195.5,370.2,195.6z
		"/>
	<path id="Ret창ngulo_3" class="st0" d="M368.5,214.4L368.5,214.4c3.6,0,6.5,2.9,6.5,6.5c0,0,0,0,0,0v38.5c0,3.6-2.9,6.5-6.5,6.5
		l0,0c-3.6,0-6.5-2.9-6.5-6.5c0,0,0,0,0,0v-38.5C362,217.3,364.9,214.4,368.5,214.4C368.5,214.4,368.5,214.4,368.5,214.4z"/>
	<path id="Caminho_18" class="st0" d="M406.4,213.3c-7.2-0.1-14.2,2.6-19.5,7.6c-5.3,4.9-8.2,11.9-8,19.2c-0.2,7.3,2.7,14.2,8,19.2
		c11,10.2,28,10.2,38.9,0c5.3-5,8.2-12,8.1-19.2c0.2-7.2-2.7-14.2-8-19.2C420.7,215.8,413.6,213.1,406.4,213.3z M416.6,251
		c-5.6,5.6-14.7,5.6-20.3,0.1c0,0-0.1-0.1-0.1-0.1c-2.8-2.9-4.4-6.8-4.2-10.9c-0.2-4,1.4-7.9,4.2-10.8c2.7-2.8,6.4-4.3,10.2-4.2
		c3.9-0.1,7.6,1.4,10.2,4.2c2.9,2.8,4.4,6.8,4.2,10.8C421,244.1,419.4,248,416.6,251L416.6,251z"/>
	<path id="Caminho_19" class="st0" d="M466.5,213.3c-4.6-0.1-9,1.3-12.7,4c-1.2,0.9-2.3,1.9-3.3,2.9v-0.8c0.2-2.5-1.6-4.8-4.2-5
		c-0.3,0-0.6,0-0.9,0h-2.6c-2.5-0.2-4.8,1.6-5,4.2c0,0.3,0,0.6,0,0.9v41.4c-0.2,2.5,1.6,4.8,4.2,5c0.3,0,0.6,0,0.9,0h2.9
		c2.5,0.2,4.8-1.6,5-4.2c0-0.3,0-0.6,0-0.9v-19.7c-0.1-4.1,1.3-8.1,4-11.2c2.5-2.9,6.1-4.5,9.9-4.4c2.7,0,4.5,0.7,5.4,2.1
		c1.3,2.5,1.8,5.2,1.6,8v25.3c-0.2,2.5,1.6,4.8,4.2,5c0.3,0,0.6,0,0.9,0h2.9c2.5,0.2,4.8-1.6,5-4.2c0-0.3,0-0.6,0-0.9v-27.4
		C484.7,216.7,474.8,213.3,466.5,213.3z"/>
	<path id="Caminho_20" class="st0" d="M237.1,297.6c-22.3-1-39.1-8.9-52.7-25c-0.6-0.8-0.7-1.9-0.1-2.8c0.3-0.4,0.8-0.7,1.4-0.7
		c0.4,0,0.7,0.2,1,0.4c9.3,8.2,20.4,12.3,34.9,12.9l0,0c14.2,0.6,30.4-2.2,47.7-5.2c21.2-3.7,45.3-7.8,71.3-6.7
		c26.3,1,52,7.8,75.4,19.9c0.9,0.5,1.3,1.6,0.9,2.6c-0.2,0.7-0.9,1.2-1.7,1.2c-0.2,0-0.4-0.1-0.6-0.1c-15.4-7.1-32.1-11-49.1-11.5
		c-24.2-1-47.9,3.6-70.7,8C274.4,294.6,255,298.4,237.1,297.6z"/>
	<path id="Caminho_21" class="st2" d="M130.9,215.2c-6.4-0.2-12.6,2.3-17.1,6.9c-4.5,4.9-6.9,11.4-6.7,18.1
		c-0.4,13.3,10,24.5,23.3,24.9c0.6,0,1.3,0,1.9,0c5.8,0,11.4-1.7,16.1-5.1c1.3-0.6,1.9-2.3,1.3-3.6c-0.1-0.2-0.2-0.4-0.3-0.5
		l-0.8-1.4c-0.6-1.4-2.2-2-3.6-1.4c-0.2,0.1-0.4,0.2-0.6,0.4c-3.3,2.5-7.3,3.8-11.4,3.8c-4.2,0.1-8.3-1.4-11.4-4.2
		c-3.2-3.1-5-7.4-5.1-11.8h31.8c0.9,0,1.7-0.3,2.3-0.9c0.6-0.6,0.9-1.4,0.9-2.3c0.3-5.9-1.6-11.8-5.5-16.4
		C142.1,217.2,136.6,214.8,130.9,215.2z M116.8,235c0.5-3.5,2.1-6.8,4.8-9.3c2.5-2.3,5.8-3.5,9.2-3.4c3.1-0.1,6.1,1.1,8.2,3.3
		c2.3,2.6,3.5,5.9,3.4,9.4L116.8,235z"/>
	<path id="Caminho_22" class="st2" d="M195.6,216.3h-3.2c-1.6-0.1-3.1,1-3.5,2.5l-10.7,29.6c-0.6,1.8-1.1,3.9-1.7,6.5h-0.2l-1.7-6.5
		l-10.7-29.6c-0.4-1.6-1.9-2.6-3.5-2.5h-3.2c-0.9-0.1-1.8,0.3-2.4,1c-0.4,0.8-0.5,1.8-0.1,2.6l15.6,41.6c0.4,1.5,1.9,2.6,3.5,2.4
		h5.3c1.6,0.1,3-0.9,3.5-2.4l15.4-41.6c0.4-0.8,0.4-1.8,0-2.6C197.4,216.6,196.5,216.2,195.6,216.3z"/>
	<path id="Caminho_23" class="st2" d="M225.6,215.2c-6.7-0.1-13.3,2.4-18.1,7.1c-4.9,4.6-7.6,11.1-7.4,17.8
		c-0.2,6.7,2.5,13.2,7.4,17.9c10.2,9.5,26.1,9.5,36.3,0c4.9-4.6,7.7-11.1,7.5-17.9c0.2-6.7-2.5-13.2-7.4-17.8
		C239,217.5,232.4,215,225.6,215.2z M237.2,252.3c-6.3,6.4-16.6,6.4-23,0.1c-0.1-0.1-0.1-0.1-0.2-0.2c-3.2-3.3-4.9-7.7-4.8-12.2
		c-0.1-4.5,1.6-8.9,4.8-12.1c3-3.1,7.2-4.9,11.6-4.8c4.4-0.1,8.6,1.6,11.6,4.8c3.2,3.2,4.9,7.6,4.8,12.1
		C242.2,244.6,240.4,249,237.2,252.3L237.2,252.3z"/>
	<path id="Caminho_24" class="st2" d="M272.5,256.1c-2.9-0.2-4.3-2.4-4.3-6.3v-49.2c0.2-1.5-0.8-2.9-2.3-3.1c-0.3,0-0.5,0-0.8,0
		h-2.9c-1.5-0.2-2.9,0.8-3.1,2.3c0,0.3,0,0.5,0,0.8v50.3c0,8.9,4.2,13.4,12.7,13.4c1.5,0.2,3-0.9,3.2-2.4c0-0.3,0-0.5,0-0.8v-2.3
		c0.1-1.4-0.8-2.6-2.2-2.7C272.6,256.1,272.6,256.1,272.5,256.1z"/>
	<path id="Caminho_25" class="st2" d="M320.2,216.3h-2.9c-1.5-0.2-2.9,0.8-3.1,2.3c0,0.3,0,0.5,0,0.8v19.2c0.1,4.6-1.4,9.1-4.2,12.7
		c-2.7,3.5-6.9,5.4-11.3,5.3c-2.7,0.3-5.3-0.8-6.9-3c-1.5-2.7-2.2-5.8-2-8.9v-25.3c0.2-1.5-0.8-2.9-2.2-3.1c-0.3,0-0.5,0-0.8,0h-2.9
		c-1.5-0.2-2.9,0.8-3.1,2.3c0,0.3,0,0.5,0,0.8v27.4c0,12.2,5.4,18.2,16.2,18.2c4,0.1,7.9-1.1,11.1-3.5c2.8-2,5.1-4.6,6.6-7.7h0.2
		l-0.3,2.7v4.2c-0.2,1.5,0.8,2.9,2.3,3.1c0.3,0,0.5,0,0.8,0h2.6c1.5,0.2,2.9-0.8,3.1-2.3c0-0.3,0-0.5,0-0.8v-41.4
		c0.2-1.5-0.8-2.9-2.3-3.1C320.8,216.3,320.5,216.2,320.2,216.3z"/>
	<path id="Caminho_26" class="st2" d="M354.6,256.1c-6-0.4-9-4-9-10.7v-21.2h8.4c1.5,0.2,2.8-0.9,3-2.3c0-0.3,0-0.5,0-0.8v-1.2
		c0.2-1.5-0.8-2.9-2.3-3.1c-0.3,0-0.5,0-0.8,0h-8.3v-10.4c0.2-1.5-0.8-2.9-2.3-3.1c-0.3,0-0.5,0-0.8,0h-2.7
		c-1.5-0.2-2.9,0.8-3.1,2.3c0,0.3,0,0.5,0,0.8v10.4h-3.4c-1.5-0.2-2.9,0.8-3.1,2.3c0,0.3,0,0.5,0,0.8v1.2c-0.2,1.5,0.8,2.9,2.2,3.1
		c0.3,0,0.5,0,0.8,0h3.3v22.6c-0.3,4.8,1.5,9.5,4.9,12.9c3.5,3.2,8.1,4.8,12.8,4.6c2.5,0,3.8-1,3.8-3.1v-2c0.1-0.8-0.2-1.6-0.7-2.3
		C356.4,256.4,355.5,256.1,354.6,256.1z"/>
	<path id="Caminho_27" class="st2" d="M370,216.3h-2.9c-1.5-0.2-2.9,0.8-3.1,2.3c0,0.3,0,0.5,0,0.8v41.4c-0.2,1.5,0.8,2.9,2.3,3.1
		c0.3,0,0.5,0,0.8,0h2.9c1.5,0.2,2.9-0.8,3.1-2.3c0-0.3,0-0.5,0-0.8v-41.4c0.2-1.5-0.8-2.9-2.3-3.1
		C370.5,216.2,370.2,216.2,370,216.3z"/>
	<path id="Ret창ngulo_4" class="st2" d="M368.2,197.5h0.7c2.4,0,4.3,1.9,4.3,4.3l0,0v0.6c0,2.4-1.9,4.3-4.3,4.3c0,0,0,0,0,0h-0.7
		c-2.4,0-4.3-1.9-4.3-4.3v-0.6C363.9,199.4,365.8,197.5,368.2,197.5C368.2,197.5,368.2,197.5,368.2,197.5z"/>
	<path id="Caminho_28" class="st2" d="M406.4,215.2c-6.7-0.1-13.3,2.4-18.1,7.1c-4.9,4.6-7.6,11.1-7.4,17.8
		c-0.2,6.7,2.5,13.2,7.4,17.9c10.2,9.5,26.1,9.5,36.3,0c4.9-4.6,7.7-11.1,7.5-17.9c0.2-6.7-2.5-13.2-7.4-17.8
		C419.7,217.5,413.1,215,406.4,215.2z M417.9,252.3c-6.3,6.4-16.6,6.4-23,0.1c-0.1-0.1-0.1-0.1-0.2-0.2c-3.2-3.3-4.9-7.7-4.8-12.2
		c-0.1-4.5,1.6-8.9,4.8-12.1c3-3.1,7.2-4.9,11.6-4.8c4.4-0.1,8.6,1.6,11.6,4.8c3.2,3.2,4.9,7.6,4.8,12.1
		C422.9,244.6,421.1,249,417.9,252.3L417.9,252.3z"/>
	<path id="Caminho_29" class="st2" d="M466.5,215.2c-4.1-0.1-8.2,1.1-11.6,3.6c-2.8,2-5,4.6-6.5,7.6h-0.2l0.3-2.7v-4.2
		c0.2-1.5-0.8-2.9-2.3-3.1c-0.3,0-0.5,0-0.8,0h-2.6c-1.5-0.2-2.9,0.8-3.1,2.3c0,0.3,0,0.5,0,0.8v41.4c-0.2,1.5,0.8,2.9,2.3,3.1
		c0.3,0,0.5,0,0.8,0h2.9c1.5,0.2,2.9-0.8,3.1-2.3c0-0.3,0-0.5,0-0.8v-19.7c-0.1-4.6,1.5-9.1,4.5-12.5c2.8-3.3,7-5.2,11.4-5.1
		c3.4,0,5.7,1,7,2.9c1.5,2.8,2.1,5.9,1.9,9v25.3c-0.2,1.5,0.8,2.9,2.3,3.1c0.3,0,0.5,0,0.8,0h2.9c1.5,0.2,2.9-0.8,3.1-2.3
		c0-0.3,0-0.5,0-0.8v-27.4C482.8,221.2,477.4,215.2,466.5,215.2z"/>
	<path id="Caminho_30" class="st3" d="M143.1,234.8l0,1.2h-27l-0.1,0.8h28l0-1.2c0.1-3.7-1.2-7.3-3.7-10.1c-0.2-0.2-0.5-0.4-0.7-0.6
		C141.9,227.6,143.2,231.2,143.1,234.8z"/>
	<path id="Caminho_31" class="st3" d="M133.4,258.8c4.3,0,8.6-1.4,12.1-4c0.4-0.2,0.8-0.3,1.2-0.3c0.1,0,0.2,0,0.4,0.1
		c-0.5-0.7-0.9-0.8-1.2-0.8c-0.4,0-0.8,0.1-1.2,0.3c-3.5,2.6-7.7,4-12,4c-4.2,0.1-8.4-1.4-11.6-4.1l0.3,0.3
		C124.6,257.3,129,258.9,133.4,258.8z"/>
	<path id="Caminho_32" class="st3" d="M115.2,223.5c4.3-4.3,10.2-6.7,16.3-6.5c4-0.2,8,1,11.3,3.2c-3.4-2.8-7.7-4.2-12.1-4
		c-6.1-0.2-12,2.2-16.3,6.5c-4.3,4.7-6.6,10.9-6.3,17.2c-0.2,6.3,2.3,12.5,6.7,17c0.2,0.2,0.5,0.3,0.7,0.5
		c-4.3-4.5-6.7-10.6-6.5-16.8C108.6,234.3,110.9,228.1,115.2,223.5z"/>
	<path id="Caminho_33" class="st3" d="M177.7,256.7l0.4-0.9c0.6-2.5,1.1-4.7,1.7-6.4l10.7-29.5c0.2-1.1,1.3-1.9,2.4-1.8h3.2
		c0.3,0,0.5,0,0.8,0.1c0-0.1-0.1-0.2-0.1-0.3c-0.1-0.1-0.4-0.5-1.5-0.5h-3.2c-1.1-0.1-2.2,0.7-2.4,1.8L179,248.6
		c-0.6,1.7-1.1,3.9-1.7,6.4l-0.4,0.9h-1.2l0.2,0.8L177.7,256.7z"/>
	<path id="Caminho_34" class="st3" d="M156.4,220.1c-0.2-0.5-0.3-1.1,0-1.6c0.2-0.3,0.7-0.5,1.4-0.5h3.2c0.4,0,0.8,0.1,1.2,0.3
		c-0.4-0.7-1.2-1.1-2-1h-3.2c-0.7,0-1.2,0.2-1.4,0.5c-0.2,0.5-0.2,1.1,0,1.6l15.6,41.5c0.2,0.6,0.6,1.1,1.2,1.4
		c-0.1-0.2-0.2-0.4-0.3-0.6L156.4,220.1z"/>
	<path id="Caminho_35" class="st3" d="M208.8,223.7c9.7-8.8,24.4-9,34.3-0.4c-0.1-0.1-0.2-0.3-0.4-0.4c-9.8-9-24.9-9-34.8,0
		c-4.7,4.4-7.2,10.5-7.1,16.9c-0.2,6.4,2.4,12.6,7.1,17c0.2,0.2,0.3,0.3,0.5,0.4c-4.4-4.4-6.9-10.4-6.7-16.7
		C201.6,234.2,204.1,228.1,208.8,223.7z"/>
	<path id="Caminho_36" class="st3" d="M242.8,239.8c0.1,4.9-1.7,9.6-5.1,13.1c-6.5,6.6-17.2,6.9-24,0.5l0.1,0.1
		c6.7,6.9,17.7,7,24.6,0.3c0.1-0.1,0.1-0.1,0.2-0.2c3.4-3.5,5.3-8.2,5.1-13.1c0.1-4.8-1.7-9.5-5.1-12.9c-0.2-0.2-0.5-0.4-0.7-0.6
		C241.1,230.5,242.9,235.1,242.8,239.8z"/>
	<path id="Caminho_37" class="st3" d="M272.8,257.8c0.2,0,0.3,0.1,0.5,0.1c-0.2-0.5-0.6-0.8-1.3-0.9c-1-0.1-2-0.4-2.8-1
		C270.1,257.1,271.4,257.7,272.8,257.8z"/>
	<path id="Caminho_38" class="st3" d="M260.6,201.2c0-1.4,0.5-2,2-2h2.9c0.3,0,0.6,0,0.9,0.1c-0.3-0.6-0.8-0.9-1.7-0.9h-2.9
		c-1.4,0-2,0.5-2,2v50.2c0,4.6,1.2,7.8,3.5,9.8c-2-2.6-2.9-5.8-2.7-9L260.6,201.2z"/>
	<path id="Caminho_39" class="st3" d="M299.1,258.3c4.7,0.1,9.2-2,12.2-5.7c3-3.8,4.6-8.5,4.5-13.4V220c0-1.4,0.5-2,2-2h2.9
		c0.3,0,0.6,0,0.9,0.1c-0.3-0.6-0.8-0.9-1.7-0.9h-2.9c-1.4,0-2,0.5-2,2v19.2c0.1,4.9-1.5,9.6-4.5,13.4c-2.9,3.7-7.4,5.8-12.2,5.7
		c-2.2,0.1-4.3-0.5-6.1-1.7C294,257.5,296.5,258.4,299.1,258.3z"/>
	<path id="Caminho_40" class="st3" d="M282.3,220c0-1.4,0.5-2,2-2h2.9c0.3,0,0.6,0,0.8,0.1c-0.2-0.6-0.7-0.9-1.7-0.9h-2.9
		c-1.4,0-2,0.5-2,2v27.3c0,6.3,1.5,10.8,4.5,13.6c-2.5-2.8-3.7-7.1-3.7-12.8V220z"/>
	<path id="Caminho_41" class="st3" d="M316,257.1l0.4-3.9h-0.9l-0.3,3.1v4.2c0,1.1,0.3,1.6,1,1.9c-0.1-0.3-0.2-0.7-0.2-1.1
		L316,257.1z"/>
	<path id="Caminho_42" class="st3" d="M337.9,223.7H337v22.9c-0.3,4.5,1.4,8.8,4.5,12c0.2,0.2,0.4,0.3,0.6,0.4
		c-3-3.2-4.5-7.4-4.3-11.7L337.9,223.7z"/>
	<path id="Caminho_43" class="st3" d="M331.6,220.5c0-1.4,0.5-2,2-2h4.5V207c0-1.4,0.5-2,2-2h2.7c0.3,0,0.6,0,0.9,0.1
		c-0.3-0.6-0.8-0.9-1.7-0.9h-2.7c-1.4,0-2,0.5-2,2v11.6h-4.5c-1.4,0-2,0.5-2,2v1.2c0,1.1,0.3,1.6,1,1.9c-0.1-0.3-0.2-0.7-0.2-1.1
		L331.6,220.5z"/>
	<path id="Caminho_44" class="st3" d="M354.1,218.5c0.3,0,0.6,0,0.9,0.1c-0.3-0.6-0.8-0.9-1.7-0.9h-8.6v0.8L354.1,218.5z"/>
	<path id="Caminho_45" class="st3" d="M356.1,258c0-0.2-0.1-0.3-0.2-0.5c-0.6-0.4-1.2-0.6-1.9-0.5c-2.1-0.1-4.2-0.8-6-2
		c1.9,1.7,4.3,2.7,6.8,2.7C355.2,257.8,355.6,257.9,356.1,258z"/>
	<path id="Caminho_46" class="st3" d="M365.4,220c0-1.4,0.5-2,2-2h2.9c0.3,0,0.6,0,0.9,0.1c-0.3-0.6-0.8-0.9-1.8-0.9h-2.9
		c-1.4,0-2,0.5-2,2v41.3c0,1.1,0.3,1.6,1,1.9c-0.1-0.3-0.2-0.7-0.2-1.1L365.4,220z"/>
	<path id="Caminho_47" class="st3" d="M365.3,201.2c0-1.4,0.5-2,2-2h3.2c0.3,0,0.6,0,0.9,0.1c-0.3-0.6-0.8-0.9-1.7-0.9h-3.2
		c-1.4,0-2,0.5-2,2v3.1c0,1.1,0.3,1.6,1,1.9c-0.1-0.3-0.2-0.7-0.2-1.1L365.3,201.2z"/>
	<path id="Caminho_48" class="st3" d="M423.2,239.8c0.1,4.9-1.7,9.6-5.1,13.1c-6.5,6.6-17.2,6.9-24,0.5l0.1,0.1
		c6.7,6.9,17.7,7,24.6,0.3c0.1-0.1,0.1-0.1,0.2-0.2c3.4-3.5,5.2-8.2,5.1-13.1c0.1-4.8-1.7-9.5-5.1-12.9c-0.2-0.2-0.5-0.4-0.7-0.6
		C421.6,230.5,423.4,235.1,423.2,239.8z"/>
	<path id="Caminho_49" class="st3" d="M389.3,223.7c9.7-8.8,24.4-9,34.3-0.4c-0.1-0.1-0.2-0.3-0.4-0.4c-9.9-9-24.9-9-34.8,0
		c-4.7,4.4-7.2,10.5-7.1,16.9c-0.2,6.4,2.4,12.6,7.1,17c0.2,0.2,0.3,0.3,0.5,0.4c-4.4-4.4-6.9-10.4-6.7-16.7
		C382,234.2,384.6,228.1,389.3,223.7z"/>
	<path id="Caminho_50" class="st3" d="M475,236.1c0.2-3.3-0.5-6.7-2.1-9.6c-0.5-0.7-1-1.2-1.7-1.7c0.3,0.3,0.6,0.6,0.9,1
		c1.6,2.9,2.4,6.3,2.1,9.6v25.3c0,1.1,0.3,1.6,1,1.9c-0.1-0.3-0.2-0.7-0.2-1.1L475,236.1z"/>
	<path id="Caminho_51" class="st3" d="M441.1,220c0-1.4,0.5-2,2-2h2.6c0.3,0,0.6,0,0.9,0.1c-0.3-0.6-0.8-0.9-1.7-0.9h-2.6
		c-1.4,0-2,0.5-2,2v41.3c0,1.1,0.3,1.6,1,1.9c-0.1-0.3-0.2-0.7-0.2-1.1L441.1,220z"/>
	<path id="Caminho_52" class="st3" d="M449.2,228.1l0.5-0.7c1.4-2.9,3.5-5.3,6.1-7.2c3.1-2.3,7-3.5,10.9-3.3c3.8-0.2,7.6,1,10.6,3.5
		c-2.5-2.9-6.3-4.3-11.4-4.3c-3.9-0.1-7.7,1-10.9,3.3c-2.6,1.8-4.7,4.3-6.1,7.2l-0.5,0.7h-1.1l-0.1,0.8L449.2,228.1z"/>
	<path id="Caminho_53" class="st2" d="M186.1,271.5c-0.1-0.1-0.3-0.2-0.4-0.3c52.9,62.7,142-19.5,229.7,21.1
		C312.7,239.9,233.2,312.2,186.1,271.5z"/>
	<path id="Caminho_54" class="st3" d="M415.4,292.3c-102.6-52.3-182.2,19.9-229.3-20.8C235.4,322.3,322.2,247.7,415.4,292.3z"/>
	<g id="Grupo_1-2" transform="translate(251.608 184.769)">
		<path id="Caminho_55" class="st0" d="M142.7,9.1c0-1.4,0.5-2.7,1.5-3.7c1.1-1.1,2.6-1.7,4.1-1.6c1.2,0,2.3,0.3,3.3,0.9
			c0.6,0.4,0.6,0.8,0.2,1.5l-0.3,0.5c-0.3,0.5-0.9,0.7-1.3,0.4c0,0-0.1,0-0.1-0.1c-0.5-0.2-1-0.4-1.5-0.4c-0.7,0-1.3,0.2-1.8,0.7
			c-0.4,0.5-0.7,1.1-0.7,1.7c0,0.7,0.2,1.3,0.7,1.8c0.5,0.5,1.2,0.8,1.8,0.7c0.7,0,1.3-0.2,1.8-0.6c0.7-0.4,1.2-0.2,1.5,0.4l0.3,0.5
			c0.3,0.5,0.2,1.1-0.2,1.4c0,0,0,0-0.1,0c-1.1,0.7-2.3,1.1-3.6,1.1c-1.5,0.1-3-0.5-4.1-1.6C143.2,11.8,142.7,10.5,142.7,9.1z"/>
		<path id="Caminho_56" class="st0" d="M158.1,3.8c1.5,0,3,0.5,4.1,1.5c2.1,2,2.2,5.3,0.3,7.4c-0.1,0.1-0.2,0.2-0.3,0.3
			c-2.4,1.9-5.8,1.9-8.2,0c-1.1-1-1.7-2.4-1.7-3.8c0-1.5,0.6-2.9,1.7-3.8C155.2,4.3,156.6,3.7,158.1,3.8z M155.9,9.1
			c0,0.7,0.2,1.3,0.7,1.8c0.9,0.9,2.4,0.9,3.3,0c0.4-0.5,0.7-1.1,0.7-1.8c0-0.7-0.2-1.3-0.7-1.8c-0.9-0.9-2.3-0.9-3.2-0.1
			c0,0,0,0-0.1,0.1C156.1,7.8,155.8,8.4,155.9,9.1L155.9,9.1z"/>
		<path id="Caminho_57" class="st0" d="M164.8,10.4V1.1c-0.1-0.5,0.3-1,0.8-1.1c0.1,0,0.2,0,0.3,0h1.2c0.5-0.1,1,0.3,1.1,0.8
			c0,0.1,0,0.2,0,0.3v9.1c0,0.6,0.2,0.9,0.6,1c0.4,0,0.8,0.4,0.8,0.8c0,0,0,0.1,0,0.1v1c0.1,0.5-0.3,1-0.8,1.1c-0.1,0-0.2,0-0.3,0
			c-0.9,0-1.7-0.2-2.5-0.6C165.2,13.1,164.8,12,164.8,10.4z"/>
		<path id="Caminho_58" class="st0" d="M169.8,9.1c0-1.4,0.5-2.7,1.5-3.7c1.1-1.1,2.6-1.7,4.1-1.6c1.2,0,2.3,0.3,3.3,0.9
			c0.6,0.4,0.6,0.8,0.2,1.5l-0.3,0.5c-0.3,0.5-0.9,0.7-1.3,0.4c0,0-0.1,0-0.1-0.1c-0.5-0.2-1-0.4-1.5-0.4c-0.7,0-1.3,0.2-1.8,0.7
			c-0.4,0.5-0.7,1.1-0.7,1.7c0,0.7,0.2,1.3,0.7,1.8c0.5,0.5,1.2,0.8,1.8,0.7c0.7,0,1.3-0.2,1.8-0.6c0.7-0.4,1.2-0.2,1.5,0.4l0.3,0.5
			c0.3,0.5,0.2,1.1-0.2,1.4c0,0,0,0-0.1,0c-1.1,0.7-2.3,1.1-3.6,1.1c-1.5,0.1-3-0.5-4.1-1.6C170.3,11.8,169.7,10.5,169.8,9.1z"/>
		<path id="Caminho_59" class="st0" d="M180.3,13.1V1.1c-0.1-0.5,0.3-1,0.8-1.1c0.1,0,0.2,0,0.3,0h1.2c0.5-0.1,1,0.3,1.1,0.8
			c0,0.1,0,0.2,0,0.3v3.4l0,0.9h0c0.3-0.5,0.7-0.9,1.3-1.2c0.6-0.3,1.2-0.4,1.8-0.4c2.4,0,3.6,1.3,3.6,3.8v5.5
			c0.1,0.5-0.3,1-0.8,1.1c-0.1,0-0.2,0-0.3,0h-1.2c-0.5,0.1-1-0.3-1.1-0.8c0-0.1,0-0.2,0-0.3V8.2c0-0.9-0.4-1.3-1.1-1.3
			c-0.6,0-1.2,0.2-1.6,0.7c-0.4,0.6-0.6,1.3-0.6,2v3.5c0.1,0.5-0.3,1-0.8,1.1c-0.1,0-0.2,0-0.3,0h-1.2c-0.5,0.1-1-0.3-1.1-0.8
			C180.3,13.2,180.3,13.1,180.3,13.1z"/>
		<path id="Caminho_60" class="st0" d="M196.9,3.8c1.5,0,3,0.5,4.1,1.5c2.1,2,2.2,5.3,0.3,7.4c-0.1,0.1-0.2,0.2-0.3,0.3
			c-2.4,1.9-5.8,1.9-8.2,0c-1.1-1-1.7-2.4-1.7-3.8c0-1.5,0.6-2.9,1.7-3.8C194,4.3,195.4,3.7,196.9,3.8z M194.3,3H194
			c-0.6,0-0.9-0.3-0.9-0.9c0-0.6,0.2-1.1,0.6-1.5c0.4-0.4,1-0.6,1.6-0.6c0.6,0,1.2,0.2,1.7,0.6c0.3,0.3,0.7,0.5,1.1,0.6
			c0.3,0,0.6-0.2,0.6-0.6c0,0,0,0,0,0c0-0.4,0.3-0.5,0.9-0.5h0.2c0.6,0,0.9,0.3,1,0.8c0,1.2-0.9,2.1-2,2.2c-0.1,0-0.1,0-0.2,0
			c-0.8-0.1-1.5-0.4-2.1-0.9c-0.3-0.2-0.6-0.3-0.9-0.3c-0.2,0.1-0.4,0.3-0.4,0.6C195.1,2.8,194.8,3,194.3,3z M194.7,9.1
			c0,0.7,0.2,1.3,0.7,1.8c0.9,0.9,2.4,0.9,3.3,0c0.4-0.5,0.7-1.1,0.7-1.8c0-0.7-0.2-1.3-0.7-1.8c-0.9-0.9-2.3-0.9-3.2-0.1
			c0,0,0,0-0.1,0.1C194.9,7.8,194.6,8.4,194.7,9.1L194.7,9.1z"/>
		<path id="Caminho_61" class="st0" d="M203.1,9.1c0-1.4,0.5-2.8,1.4-3.8c1-1,2.4-1.6,3.8-1.5c1.3-0.1,2.5,0.4,3.4,1.4
			c0.9,0.9,1.3,2.2,1.3,3.5c0,0.3-0.1,0.6-0.3,0.8c-0.2,0.2-0.5,0.3-0.8,0.3h-5.3c0.1,0.5,0.4,1,0.8,1.3c0.4,0.3,1,0.5,1.5,0.5
			c0.6,0,1.3-0.2,1.9-0.5c0.4-0.3,1.1-0.2,1.4,0.3c0,0,0.1,0.1,0.1,0.2l0.3,0.5c0.3,0.4,0.2,1-0.2,1.4c-0.1,0-0.1,0.1-0.2,0.1
			c-1.1,0.6-2.3,0.9-3.5,0.9c-1.5,0.1-3-0.5-4.1-1.6C203.6,11.8,203.1,10.5,203.1,9.1z M206.6,7.8h3c0-0.4-0.1-0.8-0.4-1.1
			c-0.3-0.3-0.6-0.4-1-0.4C207.4,6.3,206.9,6.8,206.6,7.8L206.6,7.8z"/>
		<path id="Caminho_62" class="st0" d="M214.5,13.5c-0.6-0.3-0.7-0.8-0.3-1.5l0.3-0.5c0.3-0.5,1-0.6,1.5-0.3
			c0.6,0.3,1.3,0.5,1.9,0.5c0.6,0,0.9-0.2,0.9-0.6c0-0.2-0.1-0.3-0.4-0.5c-0.4-0.2-0.8-0.4-1.3-0.5c-2.1-0.6-3.1-1.6-3.1-3.2
			c0-0.9,0.4-1.8,1.2-2.4c0.9-0.6,2-0.9,3-0.8c1,0,2,0.2,2.9,0.6c0.6,0.3,0.7,0.8,0.4,1.5l-0.2,0.5c-0.2,0.5-0.8,0.7-1.3,0.5
			c0,0-0.1,0-0.1-0.1c-0.6-0.2-1.1-0.4-1.7-0.4c-0.6,0-0.9,0.2-0.9,0.5c0,0.2,0.1,0.3,0.4,0.5c0.3,0.1,0.6,0.3,0.9,0.3
			c0.4,0.1,0.8,0.2,1.1,0.4c0.4,0.2,0.8,0.3,1.1,0.6c0.4,0.2,0.7,0.5,0.9,0.9c0.2,0.4,0.4,0.9,0.4,1.4c0,0.9-0.4,1.8-1.1,2.4
			c-0.9,0.7-1.9,1-3,0.9C216.7,14.4,215.5,14.1,214.5,13.5z"/>
	</g>
</g>
</svg>
