<?xml version="1.0" encoding="utf-8"?>
<!-- Generator: Adobe Illustrator 25.2.1, SVG Export Plug-In . SVG Version: 6.00 Build 0)  -->
<svg version="1.1" id="Camada_1" xmlns="http://www.w3.org/2000/svg" xmlns:xlink="http://www.w3.org/1999/xlink" x="0px" y="0px"
	 viewBox="0 0 150 150" style="enable-background:new 0 0 150 150;" xml:space="preserve">
<style type="text/css">
	.st0{fill:#FFFFFF;}
</style>
<path id="_062-next" class="st0" d="M37.1,145.3c3.1,3.2,8.2,3.2,11.4,0c0,0,0,0,0,0l64.5-64.5c3.1-3.2,3.1-8.3,0-11.4L48.6,4.9
	c-3.1-3.2-8.2-3.4-11.4-0.3c-3.2,3.1-3.4,8.2-0.3,11.4c0.1,0.1,0.2,0.2,0.3,0.3L96,75.2l-58.8,58.7C34,137,34,142.1,37.1,145.3
	C37.1,145.2,37.1,145.2,37.1,145.3z"/>
</svg>
