<?xml version="1.0" encoding="utf-8"?>
<!-- Generator: Adobe Illustrator 25.2.1, SVG Export Plug-In . SVG Version: 6.00 Build 0)  -->
<svg version="1.1" id="Camada_1" xmlns="http://www.w3.org/2000/svg" xmlns:xlink="http://www.w3.org/1999/xlink" x="0px" y="0px"
	 viewBox="0 0 150 150" style="enable-background:new 0 0 150 150;" xml:space="preserve">
<style type="text/css">
	.st0{fill:#9297B8;}
</style>
<path id="_095-user" class="st0" d="M100.8,72.7c16.7-14.3,18.7-39.4,4.4-56.1S65.9-2.2,49.1,12.1s-18.7,39.4-4.4,56.1
	c1.4,1.6,2.8,3.1,4.4,4.4c-28,10.7-46.5,37.6-46.6,67.6c0,4,3.2,7.2,7.2,7.2c4,0,7.2-3.2,7.2-7.2c0-32,25.9-57.9,57.9-57.9
	c32,0,57.9,25.9,57.9,57.9c0,0,0,0,0,0c0,4,3.2,7.2,7.2,7.2c4,0,7.2-3.2,7.2-7.2C147.4,110.2,128.9,83.4,100.8,72.7L100.8,72.7z
	 M75,67.8c-14,0-25.3-11.3-25.3-25.3S61,17.1,75,17.1s25.3,11.3,25.3,25.3l0,0C100.3,56.5,89,67.8,75,67.8C75,67.8,75,67.8,75,67.8z
	"/>
</svg>
