<svg version="1.1" id="Camada_1" xmlns="http://www.w3.org/2000/svg" x="0" y="0" viewBox="0 0 150 150" xml:space="preserve"><style>.st0{fill:#00a1e0}</style><path class="st0" d="M138.7 66.9L135.5 54c.9-.7 1.5-1.8 1.5-3.1v-2.5c0-6.1-4.9-11-11-11h-15.5V34c0-3.4-2.8-6.2-6.2-6.2H17.6c-3.4 0-6.2 2.8-6.2 6.2v40.9c0 2.1 1.6 3.7 3.7 3.7s3.7-1.6 3.7-3.7V35.4H103V75c0 2.1 1.6 3.7 3.7 3.7s3.7-1.6 3.7-3.7v-1.1h25.1c1.8 0 3.5.8 4.6 2.2h-4.6c-2.1 0-3.7 1.6-3.7 3.7v4.8c0 4.7 3.8 8.5 8.5 8.5h1.1v7H138c-2.5-5.8-8.2-9.6-14.5-9.6-5.4 0-10.3 2.7-13.1 7V84.7c0-2.1-1.6-3.7-3.7-3.7s-3.7 1.6-3.7 3.7v15.5H58.7c-2.5-5.8-8.2-9.6-14.5-9.6s-12.1 3.8-14.5 9.6H18.9V98h8.3c2.1 0 3.7-1.6 3.7-3.7s-1.6-3.7-3.7-3.7H5.7c-2.1 0-3.7 1.6-3.7 3.7S3.6 98 5.7 98h5.9v3.5c0 3.4 2.8 6.2 6.2 6.2h10.7c.7 8.1 7.5 14.5 15.7 14.5s15.1-6.4 15.7-14.5h48c.7 8.1 7.5 14.5 15.7 14.5s15.1-6.4 15.7-14.5h5.9c2.1 0 3.7-1.6 3.7-3.7V79.9c.1-6.3-4.2-11.6-10.2-13zm-28.2-12.2h17.4l3 11.8h-20.4V54.7zm0-7.4V45H126c1.5 0 2.8.9 3.3 2.3h-18.8zm31 36.3v2.2h-1.1c-.6 0-1.1-.5-1.1-1.1v-1.1h2.2zM123.6 98c4.6 0 8.3 3.7 8.3 8.3 0 4.6-3.7 8.3-8.3 8.3s-8.3-3.7-8.3-8.3c-.1-4.6 3.7-8.3 8.3-8.3zm-79.5 0c4.6 0 8.3 3.7 8.3 8.3 0 4.6-3.7 8.3-8.3 8.3s-8.3-3.7-8.3-8.3c0-4.6 3.7-8.3 8.3-8.3z"/><path class="st0" d="M58.4 82.7c1.1 0 2-.4 2.7-1.2l21.6-21.6c.7-.7 1.2-1.7 1.2-2.7 0-1-.4-1.9-1.1-2.7-1.4-1.4-3.9-1.4-5.3 0l-19 19-9.4-9.4c-1.5-1.5-3.8-1.5-5.3 0s-1.5 3.9 0 5.3l12.1 12.1c.6.7 1.6 1.2 2.5 1.2z"/></svg>