<?xml version="1.0" encoding="utf-8"?>
<!-- Generator: Adobe Illustrator 25.2.1, SVG Export Plug-In . SVG Version: 6.00 Build 0)  -->
<svg version="1.1" id="Camada_1" xmlns="http://www.w3.org/2000/svg" xmlns:xlink="http://www.w3.org/1999/xlink" x="0px" y="0px"
	 viewBox="0 0 150 150" style="enable-background:new 0 0 150 150;" xml:space="preserve">
<style type="text/css">
	.st0{fill:#FFFFFF;}
</style>
<path id="Caminho_73" class="st0" d="M108.4,89l-0.1,0.4c-13.3-6.6-14.7-7.5-16.5-4.9c-1.2,1.8-4.7,5.7-5.7,7c-1,1.2-2.1,1.3-4,0.4
	c-5.4-2.1-10.3-5.2-14.6-9c-3.9-3.7-7.3-7.9-10-12.5c-1.8-3.1,1.9-3.5,5.3-9.9c0.5-1,0.4-2.2-0.1-3.2c-0.4-0.9-4.1-9.9-5.6-13.4
	s-3-3.1-4.1-3.1c-2.9-0.8-6,0-8.3,2.1c-9.7,10.8-7.4,21.8,1,33.6c16.5,21.5,25.2,25.5,41.3,31c3.7,1.1,7.6,1.3,11.4,0.7
	c5.1-1.1,9.6-4.2,12.2-8.7c1.3-2.7,1.7-5.7,1.2-8.7C111.4,90.2,110.2,89.7,108.4,89L108.4,89z"/>
<path id="Caminho_74" class="st0" d="M126.8,23.1C80-21.9,2.9,10.7,2.8,74.2c0,12.7,3.4,25.1,9.7,36.1L2.2,147.8l38.5-10
	c35.2,19.1,79.3,5.9,98.3-29.3c5.7-10.5,8.7-22.2,8.7-34.1c0.1-19.2-7.6-37.6-21.2-51L126.8,23.1z M135.6,74.1
	c-0.2,33.3-27.4,60.2-60.8,59.9c-10.6-0.1-21-2.9-30.2-8.3l-2.2-1.3l-22.7,5.9l6-22.1l-1.5-2.4C6.8,77.6,15.5,40.6,43.7,23.1
	c9.5-5.9,20.5-9,31.8-9C108.6,14.1,135.5,40.9,135.6,74.1L135.6,74.1z"/>
</svg>
