<?xml version="1.0" encoding="utf-8"?>
<!-- Generator: Adobe Illustrator 25.2.1, SVG Export Plug-In . SVG Version: 6.00 Build 0)  -->
<svg version="1.1" id="Camada_1" xmlns="http://www.w3.org/2000/svg" xmlns:xlink="http://www.w3.org/1999/xlink" x="0px" y="0px"
	 viewBox="0 0 150 150" style="enable-background:new 0 0 150 150;" xml:space="preserve">
<style type="text/css">
	.st0{fill:#9297B8;}
</style>
<path id="_054-message" class="st0" d="M126,9.5H24.1c-11.8-0.2-21.6,9.2-21.8,21c0,0.3,0,0.5,0,0.8v87.3
	c-0.2,11.8,9.2,21.6,21,21.8c0.3,0,0.5,0,0.8,0h101.9c11.8,0.2,21.6-9.2,21.8-21c0-0.3,0-0.5,0-0.8V31.4c0.2-11.8-9.2-21.6-21-21.8
	C126.5,9.5,126.2,9.5,126,9.5z M126,24.1c1.5,0,2.2,0.7,2.9,0.7L75,79.4L20.4,24.8c1.5,0,2.2-0.7,3.6-0.7H126z M133.2,118.7
	c0.2,3.8-2.7,7-6.4,7.3c-0.3,0-0.6,0-0.8,0H24.1c-3.8,0.2-7-2.7-7.3-6.4c0-0.3,0-0.6,0-0.8V41.5l53.1,53.1c2.7,2.8,7.1,2.9,9.9,0.2
	c0.1-0.1,0.2-0.2,0.2-0.2l53.1-53.1L133.2,118.7z"/>
</svg>
