<svg version="1.1" id="Camada_1" xmlns="http://www.w3.org/2000/svg" x="0" y="0" viewBox="0 0 150 150" xml:space="preserve"><style>.st0{fill:#fff}</style><path id="Caminho_73" class="st0" d="M108.4 89l-.1.4c-13.3-6.6-14.7-7.5-16.5-4.9-1.2 1.8-4.7 5.7-5.7 7-1 1.2-2.1 1.3-4 .4-5.4-2.1-10.3-5.2-14.6-9-3.9-3.7-7.3-7.9-10-12.5-1.8-3.1 1.9-3.5 5.3-9.9.5-1 .4-2.2-.1-3.2-.4-.9-4.1-9.9-5.6-13.4s-3-3.1-4.1-3.1c-2.9-.8-6 0-8.3 2.1-9.7 10.8-7.4 21.8 1 33.6C62.2 98 70.9 102 87 107.5c3.7 1.1 7.6 1.3 11.4.7 5.1-1.1 9.6-4.2 12.2-8.7 1.3-2.7 1.7-5.7 1.2-8.7-.4-.6-1.6-1.1-3.4-1.8z"/><path id="Caminho_74" class="st0" d="M126.8 23.1C80-21.9 2.9 10.7 2.8 74.2c0 12.7 3.4 25.1 9.7 36.1L2.2 147.8l38.5-10c35.2 19.1 79.3 5.9 98.3-29.3 5.7-10.5 8.7-22.2 8.7-34.1.1-19.2-7.6-37.6-21.2-51l.3-.3zm8.8 51c-.2 33.3-27.4 60.2-60.8 59.9-10.6-.1-21-2.9-30.2-8.3l-2.2-1.3-22.7 5.9 6-22.1-1.5-2.4C6.8 77.6 15.5 40.6 43.7 23.1c9.5-5.9 20.5-9 31.8-9 33.1 0 60 26.8 60.1 60z"/></svg>