<svg xmlns="http://www.w3.org/2000/svg" viewBox="0 0 150 150"><path d="M75 148.5c-29.3 0-53.1-23.8-53.1-53.1V54.6C21.9 25.3 45.7 1.5 75 1.5s53.1 23.8 53.1 53.1v40.8c0 29.3-23.8 53.1-53.1 53.1zm0-138.4c-24.5 0-44.5 20-44.5 44.5v40.8c0 24.5 20 44.5 44.5 44.5s44.5-20 44.5-44.5V54.6c0-24.5-20-44.5-44.5-44.5zm0 112.5c-15 0-27.3-12.2-27.3-27.3V54.6c0-15 12.2-27.3 27.3-27.3s27.3 12.2 27.3 27.3v40.8c0 15-12.3 27.2-27.3 27.2zM75 36c-10.3 0-18.7 8.4-18.7 18.7v40.8c0 10.3 8.4 18.7 18.7 18.7s18.7-8.4 18.7-18.7V54.6C93.7 44.3 85.3 36 75 36z" fill="#00a1e0"/></svg>