<svg version="1.1" id="Camada_1" xmlns="http://www.w3.org/2000/svg" x="0" y="0" viewBox="0 0 150 150" xml:space="preserve"><style>.st0{fill:#00a1e0}</style><path class="st0" d="M29.6 39.7v2.4c0 2 1.6 3.6 3.6 3.6s3.6-1.6 3.6-3.6v-2.4c3.1-2.1 8.8-7.1 8.8-15.2 0-11-10.4-16.2-10.8-16.4-1-.5-2.2-.5-3.2 0-.4.2-10.8 5.5-10.8 16.4.1 8.1 5.8 13.1 8.8 15.2zm3.7-18.8c-2 0-3.6 1.6-3.6 3.6v5.1c-1-1.6-1.5-3.3-1.5-5.1 0-4.4 3.2-7.4 5.2-8.9 2 1.5 5.2 4.5 5.2 8.9 0 1.8-.5 3.5-1.5 5.1v-5.1c-.2-2-1.8-3.6-3.8-3.6zM34 60h-1.4c-1.2 0-2.1 1.2-2.1 2.7 0 1.5.9 2.7 2.1 2.7H34c1.2 0 2.1-1.2 2.1-2.7 0-1.5-.9-2.7-2.1-2.7zM33.9 69.8h-1.4c-1.2 0-2.1 1.2-2.1 2.7 0 1.5.9 2.7 2.1 2.7h1.4c1.2 0 2.1-1.2 2.1-2.7.1-1.5-.8-2.7-2.1-2.7zM33.9 79.6h-1.4c-1.2 0-2.1 1.2-2.1 2.7 0 1.5.9 2.7 2.1 2.7h1.4c1.2 0 2.1-1.2 2.1-2.7.1-1.5-.8-2.7-2.1-2.7z"/><path class="st0" d="M144.8 67.4c-1.2-.6-2.6-.5-3.8.2l-38.2 26.7V70.6c0-1.4-.7-2.6-1.9-3.2-1.2-.6-2.6-.5-3.8.2l-43 30.1h-1.8v-5.2c0-2-1.6-3.6-3.6-3.6h-3V54.2c1.3-.6 2.2-1.8 2.2-3.3 0-2-1.6-3.6-3.6-3.6h-22c-2 0-3.6 1.6-3.6 3.6 0 1.5.9 2.8 2.2 3.3V89h-3c-2 0-3.6 1.6-3.6 3.6v5.2h-3c-4.4 0-8 3.6-8 8v32.9c0 2 1.6 3.6 3.6 3.6h136.2c2 0 3.6-1.6 3.6-3.6V70.6c0-1.3-.7-2.6-1.9-3.2zM28.1 88.9V54.5h10.3V89H28.1zm-6.6 8.8v-1.5H45v1.5H21.5zM94 129.9c0-.4.3-.8.8-.8h30.7c.4 0 .8.3.8.8v5.2H94v-5.2zm-35.1 0c0-.4.3-.8.8-.8h13.2c.4 0 .8.3.8.8v5.2H58.9v-5.2zm-35.2 0c0-.4.3-.8.8-.8h13.2c.4 0 .8.3.8.8v5.2H23.7v-5.2zm101.8-8H94.8c-4.4 0-8 3.6-8 8v5.2h-5.9v-5.2c0-4.4-3.6-8-8-8H59.6c-4.4 0-8 3.6-8 8v5.2h-5.9v-5.2c0-4.4-3.6-8-8-8H24.5c-4.4 0-8 3.6-8 8v5.2h-5.9v-29.3c0-.4.3-.8.8-.8h43.9c.8 0 1.5-.2 2.1-.7l38.2-26.7v23.8c0 1.4.7 2.6 1.9 3.2 1.2.6 2.6.5 3.8-.2l38.2-26.7v57.5h-5.9V130c-.1-4.5-3.7-8.1-8.1-8.1z"/><path class="st0" d="M118.9 110.9h-17.6c-2 0-3.6 1.6-3.6 3.6s1.6 3.6 3.6 3.6h17.6c2 0 3.6-1.6 3.6-3.6s-1.6-3.6-3.6-3.6z"/></svg>