<svg version="1.1" id="Camada_1" xmlns="http://www.w3.org/2000/svg" x="0" y="0" viewBox="0 0 150 150" xml:space="preserve"><style>.st0{fill:#00a1e0}</style><path class="st0" d="M143.7 61.2c-2.9-2.9-6.6-4.4-10.7-4.4h-6.4v-.2c0-2-1.6-3.7-3.7-3.7h-17.2V40.1c0-12.3-10-22.4-22.4-22.4H76c-1.5 0-2.6 1.2-2.6 2.6 0 1.5 1.2 2.6 2.6 2.6h7.5c9.4 0 17.1 7.7 17.1 17.1v20.2c0 1.5 1.2 2.6 2.6 2.6 1.5 0 2.6-1.2 2.6-2.6V58h15.6v11h-20.5c-6.8 0-12.4-5.6-12.4-12.4v-16c0-1.5-1.2-2.6-2.6-2.6-1.5 0-2.6 1.2-2.6 2.6v16.2c0 4.3 1.6 8.4 4.4 11.7l-5.2 19.3c-.9 3.4-1.2 6.8-1 10.3-17.3-4.2-35.1-6.4-52.9-6.4h-1.1l1.1-4.1c1.7 1.4 3.8 2.1 6.1 2.1h.9c1.5 0 2.6-1.2 2.6-2.6 0-1.5-1.2-2.6-2.6-2.6h-.9c-2.5 0-4.5-2-4.5-4.5v-5.4c0-2.1-.8-4-2.3-5.4l-1.6-1.6 5-5c.1 0 .2 0 .3.1 4.5.6 7.9 4.5 7.9 9.1v2.9c0 4.2 3.4 7.6 7.6 7.6h.4c.6 0 1.1.5 1.1 1.1s-.5 1.1-1.1 1.1h-2c-1.5 0-2.6 1.2-2.6 2.6 0 1.5 1.2 2.6 2.6 2.6h2c3.5 0 6.4-2.9 6.4-6.4s-2.9-6.4-6.4-6.4H47c-1.3 0-2.3-1-2.3-2.3v-2.9c0-5.7-3.3-10.8-8.5-13.2l6-22.4c.4-1.4-.5-2.9-1.9-3.2-.7-.2-1.4-.1-2 .3-.6.4-1 .9-1.2 1.6l-1.8 6.6-10.8 6.2-3.2-3.2c-.5-.5-1.2-.8-1.9-.8s-1.4.3-1.9.8c-1 1-1 2.7 0 3.7L28 58.3l-8 8L9.8 56.1c-2-2-2.9-4.7-2.5-7.5.4-2.8 2-5.2 4.4-6.6l25.7-14.8c4.7-2.7 10.1-4.2 15.5-4.2H66c1.5 0 2.6-1.2 2.6-2.6s-1.2-2.6-2.6-2.6H52.8c-6.4 0-12.6 1.7-18.1 4.9L9 37.5c-3.9 2.2-6.4 6-7 10.4-.6 4.4.9 8.7 4 11.9l11.4 11.4c1.4 1.4 3.6 1.4 5.1.1l1.6 1.6c.5.5.7 1.1.7 1.7V80c0 .4 0 .7.1 1.1l-2.7 10.1c-.8 3.1-1.3 6.3-1.3 9.5 0 7.3 1 14.5 2.8 21.5l2.2 8.1c.4 1.4 1.7 2.4 3.2 2.4h62.2c1 0 2-.5 2.6-1.3.6-.8.8-1.8.6-2.8l-7-25.6c-1.2-4.5-1.2-9.3 0-13.9l4.6-17c2.7 1.5 5.7 2.4 8.8 2.4h20.5v54.8c0 1.8 1.5 3.3 3.3 3.3h6c1.8 0 3.3-1.5 3.3-3.3v-14.8c0-1.5-1.2-2.6-2.6-2.6s-2.6 1.2-2.6 2.6v12.8h-2v-52c0-2.6 2.1-4.8 4.6-4.8 2.6 0 4.6 2.1 4.6 4.6v7.1c0 .6-.4 1.1-1 1.1-.3 0-.5-.1-.7-.3-.2-.2-.3-.4-.3-.7v-5.4c0-1.5-1.2-2.6-2.6-2.6s-2.6 1.2-2.6 2.6v27.8c0 1.5 1.2 2.6 2.6 2.6s2.6-1.2 2.6-2.6V88.5c.4.1.9.1 1.3.1 3.4-.2 6-3 6-6.4v-1c3.8-.2 6.9-3.4 6.9-7.3v-2c-.1-4-1.7-7.8-4.5-10.7zM141.2 75c0-5.4-4.5-9.9-9.9-9.9h-4.6V62h6.4c5.4 0 9.8 4.4 9.8 9.8v2c0 1-.7 1.8-1.6 2-.1-.6-.1-.7-.1-.8zm-93.3 35.2c-.7.1-1.3.5-1.7 1-.4.6-.6 1.3-.5 2 .5 3 1.1 6 1.9 8.9l1.4 5.2H30.5l-1.8-6.6c-1.8-6.6-2.6-13.3-2.6-20.1 0-1.2.1-2.4.2-3.6h2.2c18.1 0 36.2 2.3 53.8 6.7.1.4.5 1.9 2.6 9.9l3.6 13.6H54.4l-1.8-6.6c-.7-2.7-1.3-5.5-1.7-8.3-.1-.7-.5-1.3-1-1.7-.6-.4-1.3-.5-2-.4zM33.5 48.5l-1.7 6.2-3.3-3.3 5-2.9z"/><path class="st0" d="M18 76.4H9.1c-1.5 0-2.6 1.2-2.6 2.6 0 1.5 1.2 2.6 2.6 2.6H18c1.5 0 2.6-1.2 2.6-2.6 0-1.4-1.2-2.6-2.6-2.6zM16.1 86.9l-6.3 6.3c-.5.4-.8 1.1-.8 1.8a2.732 2.732 0 0 0 2.7 2.7c.7 0 1.4-.3 1.9-.8l6.3-6.3c.5-.5.8-1.2.8-1.9s-.3-1.4-.8-1.9c-1.1-1-2.8-1-3.8.1z"/></svg>