<svg version="1.1" id="Camada_1" xmlns="http://www.w3.org/2000/svg" x="0" y="0" viewBox="0 0 150 150" xml:space="preserve"><style>.st0{fill:#00a1e0}</style><path class="st0" d="M110 5.1H40c-19.3 0-35 15.7-35 35V110c0 19.3 15.7 35 35 35h70c19.3 0 35-15.7 35-35V40c-.1-19.3-15.7-34.9-35-34.9zM133.3 110c0 12.9-10.5 23.3-23.3 23.3H40c-12.9 0-23.3-10.5-23.3-23.3V40c0-12.9 10.5-23.3 23.3-23.3h70c12.9 0 23.3 10.5 23.3 23.3v70z"/><path class="st0" d="M104.1 69.2H80.8V45.9c0-3.2-2.6-5.8-5.8-5.8s-5.8 2.6-5.8 5.8v23.3H45.9c-3.2 0-5.8 2.6-5.8 5.8s2.6 5.8 5.8 5.8h23.3v23.3c0 3.2 2.6 5.8 5.8 5.8s5.8-2.6 5.8-5.8V80.8h23.3c3.2 0 5.8-2.6 5.8-5.8s-2.5-5.8-5.8-5.8z"/></svg>