<svg version="1.1" id="Camada_1" xmlns="http://www.w3.org/2000/svg" x="0" y="0" viewBox="0 0 150 150" xml:space="preserve"><style>.st0{fill:#00a1e0}</style><path class="st0" d="M34.3 76.1c-2.4-.6-5.1-1-8-1-5.5 0-11.5 1.5-16.5 6.5-7.4 7.5-7.1 17.4-5.5 24.3 2.1 8.9 7.4 18.1 14.6 25.3 7.2 7.2 16.5 12.5 25.5 14.6 6.9 1.6 16.7 1.9 24.2-5.6s7.2-17.4 5.5-24.4c-2.1-8.8-7.4-18-14.6-25.2-7.1-7.2-16.3-12.5-25.2-14.5zM64 135.7c-3.3 3.3-7.5 4.7-12 4.7-10 0-21.6-6.8-28.5-13.7-10-10-19.8-29.8-9-40.5 9.7-9.7 28.6-2.9 40.5 9 5.5 5.5 10.1 13 12.2 20 2.7 8.6 1.5 15.7-3.2 20.5z"/><path class="st0" d="M51.9 122.6l1.7-6.2c-2.7-.9-7.2-3-12-7.7-4.8-4.8-6.9-9.3-7.7-12l-6.2 1.7c1.2 3.8 3.8 9.3 9.4 14.9 5.5 5.5 10.9 8.1 14.8 9.3zM145.6 72c1.6-7 2-16.9-5.5-24.4-4.6-4.6-10.4-6.5-16.7-6.5-11.2 0-23.7 6.3-33 15.6-14.4 14.3-21.7 36.8-9 49.5 12.7 12.7 35.2 5.4 49.6-9 7.2-7.1 12.5-16.3 14.6-25.2zm-39.1 32.9c-3.1.9-5.9 1.4-8.6 1.4-4.8 0-8.9-1.6-11.9-4.6-10.7-10.7-1-30.5 9-40.5 11.9-11.9 30.8-18.7 40.5-9 10.7 10.7 1 30.5-9 40.5-5.5 5.5-13 10-20 12.2z"/><path class="st0" d="M96.4 82.4l1.7 6.2c3.8-1.2 9.3-3.8 14.9-9.4 5.7-5.7 8.2-11.1 9.4-14.9l-6.2-1.7c-.9 2.7-3 7.2-7.7 12-4.8 4.8-9.3 6.9-12.1 7.8zM36.4 3.6c-15.9 0-33 9.4-33 24.5s17.1 24.5 33 24.5 33-9.4 33-24.5-17.1-24.5-33-24.5zm0 42.5c-10.7 0-26.5-5.7-26.5-18s15.8-18 26.5-18S63 15.8 63 28.1s-15.9 18-26.6 18z"/><path class="st0" d="M36.4 24.9c-4.7 0-7.8-1.4-9.2-2.4L22 26.6c2.5 2.4 7.7 4.7 14.4 4.7s11.8-2.3 14.4-4.7l-5.1-4.1c-1.4.9-4.5 2.4-9.3 2.4zM105.8 134.9c0 6.6 7 11.7 16 11.7s16-5.1 16-11.7-7-11.7-16-11.7-16 5.1-16 11.7zm25.5 0c0 2.5-3.9 5.3-9.5 5.3s-9.5-2.8-9.5-5.3 3.9-5.3 9.5-5.3 9.5 2.8 9.5 5.3zM92 3.8c-.6-.1-1.3-.1-1.9-.1-2.8 0-5.3 1-7.1 2.8-4.6 4.5-3.3 13.1 3 19.5 2.9 2.9 6.6 4.9 10.2 5.6 2.6.5 6.4.4 9.4-2.6s3-6.8 2.5-9.5c-.7-3.5-2.7-7.2-5.6-10.1-3-3.1-6.7-5.1-10.5-5.6zm9.1 20.6c-.6.6-1.5.9-2.5.9-2.4 0-5.5-1.4-7.9-3.9-4-4-4.8-8.7-3-10.5 2-2 6.9-.6 10.5 3 2.7 2.9 5.2 8.2 2.9 10.5z"/></svg>