<?xml version="1.0" encoding="utf-8"?>
<!-- Generator: Adobe Illustrator 25.2.1, SVG Export Plug-In . SVG Version: 6.00 Build 0)  -->
<svg version="1.1" id="Camada_1" xmlns="http://www.w3.org/2000/svg" xmlns:xlink="http://www.w3.org/1999/xlink" x="0px" y="0px"
	 viewBox="0 0 150 150" style="enable-background:new 0 0 150 150;" xml:space="preserve">
<style type="text/css">
	.st0{fill:#FFFFFF;}
</style>
<g id="shield" transform="translate(-48.201 0)">
	<path id="Caminho_89" class="st0" d="M109.5,56.9c-1.7-1.7-4.3-1.7-6,0L90.7,69.7c-1.7,1.7-1.7,4.3,0,6l24.9,24.9
		c1.7,1.7,4.3,1.7,6,0l36.3-36.3c1.7-1.7,1.7-4.3,0-6l-12.8-12.8c-1.7-1.7-4.3-1.7-6,0L118.7,66L109.5,56.9z M142.1,54.6l6.8,6.8
		l-30.3,30.3l-19-19l6.8-6.8l9.1,9.1c1.7,1.7,4.3,1.7,6,0L142.1,54.6z"/>
	<path id="Caminho_90" class="st0" d="M179.2,25.7L124.8,3.1c-1-0.4-2.2-0.4-3.3,0L67.2,25.7c-1.6,0.7-2.6,2.2-2.6,3.9v37.9
		c0,36.1,23.1,68.1,57.3,79.5l0.1,0c0.8,0.3,1.7,0.3,2.6,0l0.1,0c34.2-11.4,57.3-43.4,57.3-79.5V29.7
		C181.8,27.9,180.8,26.4,179.2,25.7z M173.4,67.5c0,31.9-20.1,60.4-50.2,71C93.1,127.9,73,99.4,73,67.5v-35l50.2-20.9l50.2,20.9
		L173.4,67.5z"/>
</g>
</svg>
