<?xml version="1.0" encoding="utf-8"?>
<!-- Generator: Adobe Illustrator 25.2.1, SVG Export Plug-In . SVG Version: 6.00 Build 0)  -->
<svg version="1.1" id="Camada_1" xmlns="http://www.w3.org/2000/svg" xmlns:xlink="http://www.w3.org/1999/xlink" x="0px" y="0px"
	 viewBox="0 0 400 400" style="enable-background:new 0 0 400 400;" xml:space="preserve">
<style type="text/css">
	.st0{fill:url(#Elipse_1_1_);}
	.st1{fill:#FFFFFF;}
</style>
<linearGradient id="Elipse_1_1_" gradientUnits="userSpaceOnUse" x1="3.937" y1="398.7915" x2="3.937" y2="394.8928" gradientTransform="matrix(101 0 0 -101 -197.6378 40281.0547)">
	<stop  offset="0" style="stop-color:#8FFFB5"/>
	<stop  offset="1" style="stop-color:#73C884"/>
</linearGradient>
<circle id="Elipse_1" class="st0" cx="200" cy="200" r="196.9"/>
<g id="whatsapp" transform="translate(29.772 29.761)">
	<path id="Caminho_73" class="st1" d="M207.3,185.8l-0.2,0.5c-14.7-7.4-16.4-8.4-18.3-5.4c-1.3,1.9-5.2,6.4-6.4,7.9
		c-1.1,1.3-2.3,1.5-4.4,0.5c-5.9-2.4-11.4-5.7-16.2-10c-4.3-4.1-8.1-8.8-11.1-13.9c-1.9-3.4,2.1-3.9,5.9-11c0.5-1.2,0.5-2.5-0.2-3.6
		c-0.5-1-4.6-11-6.2-14.9s-3.3-3.4-4.6-3.4c-3.2-0.9-6.7,0-9.2,2.3c-10.8,12-8.2,24.2,1.1,37.3c18.3,23.9,28,28.3,45.8,34.4
		c4.1,1.2,8.4,1.5,12.6,0.8c3.9-0.7,12-4.9,13.6-9.7c1.4-3,1.8-6.4,1.3-9.7C210.8,187.1,209.4,186.6,207.3,185.8z"/>
	<path id="Caminho_74" class="st1" d="M227.8,112.6C175.9,62.6,90.2,98.8,90.1,169.4c0,14.1,3.8,27.9,10.8,40.1l-11.5,41.6
		l42.7-11.1c53.2,28.8,118.9-9.5,118.9-70.4c0.1-21.3-8.4-41.7-23.6-56.7L227.8,112.6z M237.6,169.2c-0.3,37-30.5,66.8-67.6,66.5
		c-11.8-0.1-23.3-3.3-33.5-9.2l-2.5-1.5l-25.2,6.5l6.7-24.6l-1.6-2.6c-19.4-31.3-9.8-72.4,21.5-91.8c10.6-6.6,22.8-10,35.3-10
		C207.6,102.6,237.5,132.4,237.6,169.2L237.6,169.2z"/>
</g>
</svg>
