<svg version="1.1" id="Camada_1" xmlns="http://www.w3.org/2000/svg" x="0" y="0" viewBox="0 0 400 400" xml:space="preserve"><style>.st1{fill:#fff}</style><linearGradient id="Elipse_1_1_" gradientUnits="userSpaceOnUse" x1="3.937" y1="398.791" x2="3.937" y2="394.893" gradientTransform="matrix(101 0 0 -101 -197.638 40281.055)"><stop offset="0" stop-color="#8fffb5"/><stop offset="1" stop-color="#73c884"/></linearGradient><circle id="Elipse_1" cx="200" cy="200" r="196.9" fill="url(#Elipse_1_1_)"/><g id="whatsapp" transform="translate(29.772 29.761)"><path id="Caminho_73" class="st1" d="M207.3 185.8l-.2.5c-14.7-7.4-16.4-8.4-18.3-5.4-1.3 1.9-5.2 6.4-6.4 7.9-1.1 1.3-2.3 1.5-4.4.5-5.9-2.4-11.4-5.7-16.2-10-4.3-4.1-8.1-8.8-11.1-13.9-1.9-3.4 2.1-3.9 5.9-11 .5-1.2.5-2.5-.2-3.6-.5-1-4.6-11-6.2-14.9s-3.3-3.4-4.6-3.4c-3.2-.9-6.7 0-9.2 2.3-10.8 12-8.2 24.2 1.1 37.3 18.3 23.9 28 28.3 45.8 34.4 4.1 1.2 8.4 1.5 12.6.8 3.9-.7 12-4.9 13.6-9.7 1.4-3 1.8-6.4 1.3-9.7 0-.8-1.4-1.3-3.5-2.1z"/><path id="Caminho_74" class="st1" d="M227.8 112.6c-51.9-50-137.6-13.8-137.7 56.8 0 14.1 3.8 27.9 10.8 40.1l-11.5 41.6 42.7-11.1c53.2 28.8 118.9-9.5 118.9-70.4.1-21.3-8.4-41.7-23.6-56.7l.4-.3zm9.8 56.6c-.3 37-30.5 66.8-67.6 66.5-11.8-.1-23.3-3.3-33.5-9.2L134 225l-25.2 6.5 6.7-24.6-1.6-2.6c-19.4-31.3-9.8-72.4 21.5-91.8 10.6-6.6 22.8-10 35.3-10 36.9.1 66.8 29.9 66.9 66.7z"/></g></svg>